<svg viewBox="0 0 87 47" fill="none" xmlns="http://www.w3.org/2000/svg">
  <path d="M43.5 32.02C30.1 32.02 15.86 29.9 15.86 25.98C15.86 24.44 17.97 23.11 22.14 22.05L22.39 23.02C17.26 24.33 16.86 25.62 16.86 25.98C16.86 28.36 27.8 31.02 43.5 31.02C59.2 31.02 70.14 28.36 70.14 25.98C70.14 25.62 69.74 24.33 64.61 23.02L64.86 22.05C69.03 23.12 71.14 24.44 71.14 25.98C71.14 29.9 56.9 32.02 43.5 32.02Z" fill="currentColor"/>
  <path d="M43.5 41.6899C30.1 41.6899 15.86 39.57 15.86 35.65H16.86C16.86 38.03 27.8 40.6899 43.5 40.6899C59.2 40.6899 70.14 38.03 70.14 35.65H71.14C71.14 39.57 56.9 41.6899 43.5 41.6899Z" fill="currentColor"/>
  <path d="M43.36 8.15002C36.86 8.15002 27.2 7.15 27.2 4.38C27.2 1.61 36.87 0.609985 43.36 0.609985C49.85 0.609985 59.52 1.61 59.52 4.38C59.52 7.15 49.85 8.15002 43.36 8.15002ZM43.36 1.60999C33.4 1.60999 28.2 3.41 28.2 4.38C28.2 5.35001 33.41 7.15002 43.36 7.15002C53.31 7.15002 58.52 5.35001 58.52 4.38C58.52 3.41 53.31 1.60999 43.36 1.60999Z" fill="currentColor"/>
  <path d="M43.36 14.41C36.86 14.41 27.2 13.41 27.2 10.64H28.2C28.2 11.61 33.41 13.41 43.36 13.41C53.31 13.41 58.52 11.61 58.52 10.64H59.52C59.52 13.4 49.85 14.41 43.36 14.41Z" fill="currentColor"/>
  <path d="M59.52 4.38H58.52V10.65H59.52V4.38Z" fill="currentColor"/>
  <path d="M28.2 4.38H27.2V10.65H28.2V4.38Z" fill="currentColor"/>
  <path d="M43.5 18.73C32.69 18.73 21.76 17.05 21.76 13.83C21.76 12.4 23.84 11.2199 27.95 10.3199L28.16 11.3C24.17 12.18 22.76 13.21 22.76 13.83C22.76 15.46 30.65 17.73 43.5 17.73C56.35 17.73 64.24 15.46 64.24 13.83C64.24 13.17 62.7 12.09 58.38 11.2L58.58 10.22C63 11.13 65.24 12.35 65.24 13.83C65.24 17.05 54.3 18.73 43.5 18.73Z" fill="currentColor"/>
  <path d="M43.5 26.51C32.69 26.51 21.76 24.83 21.76 21.61H22.76C22.76 23.24 30.65 25.51 43.5 25.51C56.35 25.51 64.24 23.24 64.24 21.61H65.24C65.24 24.83 54.3 26.51 43.5 26.51Z" fill="currentColor"/>
  <path d="M65.24 13.83H64.24V21.61H65.24V13.83Z" fill="currentColor"/>
  <path d="M22.76 13.83H21.76V21.61H22.76V13.83Z" fill="currentColor"/>
  <path d="M71.14 25.98H70.14V35.65H71.14V25.98Z" fill="currentColor"/>
  <path d="M16.85 25.98H15.85V35.65H16.85V25.98Z" fill="currentColor"/>
  <path d="M59.63 6.93005C75.01 13.2701 85.83 28.41 85.83 46.08" stroke="currentColor" stroke-miterlimit="10"/>
  <path d="M1.16998 46.09C1.16998 28.57 11.82 13.53 27 7.09998" stroke="currentColor" stroke-miterlimit="10"/>
</svg>
