<svg width="87" height="49" viewBox="0 0 87 49" fill="none" xmlns="http://www.w3.org/2000/svg">
<path d="M64.03 11.11C77.03 18.34 85.83 32.21 85.83 48.14" stroke="#95D2E5" stroke-miterlimit="10"/>
<path d="M1.16998 48.14C1.16998 32.21 9.96999 18.34 22.97 11.11" stroke="#95D2E5" stroke-miterlimit="10"/>
<path d="M60.12 7.58997H55.51C54.5 7.58997 53.68 6.77001 53.68 5.76001C53.68 4.75001 54.5 3.93005 55.51 3.93005H60.12C61.13 3.93005 61.95 4.75001 61.95 5.76001C61.95 6.77001 61.13 7.58997 60.12 7.58997ZM55.52 4.93005C55.06 4.93005 54.69 5.30001 54.69 5.76001C54.69 6.22001 55.06 6.58997 55.52 6.58997H60.13C60.59 6.58997 60.96 6.22001 60.96 5.76001C60.96 5.30001 60.59 4.93005 60.13 4.93005H55.52Z" fill="#4693A5"/>
<path d="M61.13 42.29H25.86C24.16 42.29 22.77 40.9 22.77 39.2V3.93005C22.77 2.22005 24.16 0.839966 25.86 0.839966H61.13C62.84 0.839966 64.22 2.23005 64.22 3.93005V39.2C64.22 40.91 62.83 42.29 61.13 42.29ZM25.86 1.82996C24.71 1.82996 23.77 2.77004 23.77 3.92004V39.1899C23.77 40.3399 24.71 41.28 25.86 41.28H61.13C62.28 41.28 63.22 40.3399 63.22 39.1899V3.92004C63.22 2.77004 62.28 1.82996 61.13 1.82996H25.86Z" fill="#4693A5"/>
<path d="M61.13 42.29H25.86C24.16 42.29 22.77 40.9 22.77 39.2V9.72998H64.23V39.2C64.23 40.91 62.84 42.29 61.14 42.29H61.13ZM23.77 10.73V39.2C23.77 40.35 24.71 41.29 25.86 41.29H61.13C62.28 41.29 63.22 40.35 63.22 39.2V10.73H23.76H23.77Z" fill="#4693A5"/>
<path d="M27.19 7.58997C26.18 7.58997 25.36 6.77001 25.36 5.76001C25.36 4.75001 26.18 3.93005 27.19 3.93005C28.2 3.93005 29.02 4.75001 29.02 5.76001C29.02 6.77001 28.2 7.58997 27.19 7.58997ZM27.19 4.93005C26.73 4.93005 26.36 5.30001 26.36 5.76001C26.36 6.22001 26.73 6.58997 27.19 6.58997C27.65 6.58997 28.02 6.22001 28.02 5.76001C28.02 5.30001 27.65 4.93005 27.19 4.93005Z" fill="#4693A5"/>
<path d="M31.79 7.58997C30.78 7.58997 29.96 6.77001 29.96 5.76001C29.96 4.75001 30.78 3.93005 31.79 3.93005C32.8 3.93005 33.62 4.75001 33.62 5.76001C33.62 6.77001 32.8 7.58997 31.79 7.58997ZM31.79 4.93005C31.33 4.93005 30.96 5.30001 30.96 5.76001C30.96 6.22001 31.33 6.58997 31.79 6.58997C32.25 6.58997 32.62 6.22001 32.62 5.76001C32.62 5.30001 32.25 4.93005 31.79 4.93005Z" fill="#4693A5"/>
<path d="M36.4 7.58997C35.39 7.58997 34.57 6.77001 34.57 5.76001C34.57 4.75001 35.39 3.93005 36.4 3.93005C37.41 3.93005 38.23 4.75001 38.23 5.76001C38.23 6.77001 37.41 7.58997 36.4 7.58997ZM36.4 4.93005C35.94 4.93005 35.57 5.30001 35.57 5.76001C35.57 6.22001 35.94 6.58997 36.4 6.58997C36.86 6.58997 37.23 6.22001 37.23 5.76001C37.23 5.30001 36.86 4.93005 36.4 4.93005Z" fill="#4693A5"/>
<path d="M47.1 18.45V28.5C47.11 32.05 44.39 34.28 40.38 34.29C36.36 34.28 33.67 32.04 33.68 28.5V18.45H37.79V28.14C37.79 29.65 38.87 30.73 40.38 30.73C41.89 30.73 42.99 29.65 43 28.14V18.45H47.11H47.1Z" fill="#4693A5"/>
<path d="M53.32 34.1H49.21V18.45H53.32V34.1Z" fill="#4693A5"/>
</svg>
