<svg width="87" height="50" viewBox="0 0 87 50" fill="none" xmlns="http://www.w3.org/2000/svg">
<path d="M66.73 13.74C78.24 21.31 85.83 34.3299 85.83 49.1299" stroke="#95D2E5" stroke-miterlimit="10"/>
<path d="M1.16998 49.1399C1.16998 34.2499 8.84999 21.1601 20.47 13.6101" stroke="#95D2E5" stroke-miterlimit="10"/>
<path d="M65.27 38.1599H21.73C20.75 38.1599 19.96 37.3699 19.96 36.3899V6.57007C19.96 5.59007 20.75 4.80005 21.73 4.80005H29.06C29.36 4.80005 29.59 5.04008 29.59 5.33008C29.59 5.62008 29.35 5.86011 29.06 5.86011H21.73C21.35 5.86011 21.04 6.17005 21.04 6.55005V36.3601C21.04 36.7401 21.35 37.05 21.73 37.05H65.27C65.65 37.05 65.96 36.7401 65.96 36.3601V6.56006C65.96 6.18006 65.65 5.87012 65.27 5.87012H43.27C42.97 5.87012 42.74 5.63009 42.74 5.34009C42.74 5.05009 42.98 4.81006 43.27 4.81006H65.27C66.25 4.81006 67.04 5.60008 67.04 6.58008V36.3899C67.04 37.3499 66.25 38.1599 65.27 38.1599Z" fill="#4693A5"/>
<path d="M63.42 35.0801H23.58C23.28 35.0801 23.05 34.84 23.05 34.55V8.41992C23.05 8.11992 23.29 7.88989 23.58 7.88989H28.05C28.35 7.88989 28.58 8.12992 28.58 8.41992C28.58 8.70992 28.34 8.94995 28.05 8.94995H24.11V34.01H62.9V8.96997H44.29C43.99 8.96997 43.76 8.72994 43.76 8.43994C43.76 8.14994 44 7.90991 44.29 7.90991H63.42C63.72 7.90991 63.95 8.14994 63.95 8.43994V34.55C63.95 34.84 63.72 35.0801 63.42 35.0801Z" fill="#4693A5"/>
<path d="M37.37 44.2501C37.18 44.2501 37 44.1501 36.91 43.9801C36.76 43.7201 36.86 43.4001 37.11 43.2501C40.06 41.5801 39.83 37.7 39.83 37.65C39.82 37.35 40.03 37.1102 40.33 37.0802C40.63 37.0702 40.87 37.2802 40.9 37.5802C40.91 37.7702 41.17 42.17 37.64 44.18C37.54 44.23 37.45 44.2501 37.37 44.2501Z" fill="#4693A5"/>
<path d="M49.62 44.25C49.52 44.25 49.44 44.22 49.36 44.18C45.83 42.18 46.09 37.7701 46.1 37.5801C46.11 37.2801 46.37 37.0601 46.67 37.0801C46.97 37.1001 47.19 37.3499 47.17 37.6499C47.17 37.6499 46.95 41.57 49.89 43.25C50.15 43.4 50.24 43.73 50.09 43.98C49.98 44.16 49.8 44.25 49.61 44.25H49.62Z" fill="#4693A5"/>
<path d="M51.62 44.25H35.38C35.08 44.25 34.85 44.01 34.85 43.72C34.85 43.43 35.09 43.1899 35.38 43.1899H51.62C51.92 43.1899 52.15 43.43 52.15 43.72C52.15 44.01 51.92 44.25 51.62 44.25Z" fill="#4693A5"/>
<path d="M39.08 23.45C38.78 23.45 38.55 23.2099 38.55 22.9199C38.55 17.5199 40.42 15.2499 41.93 13.4099C42.98 12.1499 43.8 11.1399 43.8 9.37988C43.8 5.16988 40.38 1.75 36.17 1.75C31.96 1.75 28.54 5.16988 28.54 9.37988C28.54 11.1499 29.37 12.1499 30.41 13.4099C31.92 15.2299 33.79 17.4999 33.79 22.9199C33.79 23.2199 33.55 23.45 33.26 23.45C32.97 23.45 32.73 23.2099 32.73 22.9199C32.73 17.8999 31.06 15.8701 29.59 14.1101C28.5 12.7901 27.47 11.5399 27.47 9.3999C27.47 4.5899 31.38 0.699951 36.17 0.699951C40.96 0.699951 44.87 4.6099 44.87 9.3999C44.87 11.5599 43.84 12.8001 42.75 14.1101C41.28 15.8901 39.61 17.8999 39.61 22.9199C39.6 23.2099 39.35 23.45 39.05 23.45H39.08Z" fill="#4693A5"/>
<path d="M40.24 28.6299H32.09C31.22 28.6299 30.51 27.92 30.51 27.05V23.97C30.51 23.1 31.22 22.3899 32.09 22.3899H40.24C41.11 22.3899 41.82 23.1 41.82 23.97V27.05C41.82 27.92 41.11 28.6299 40.24 28.6299ZM32.09 23.45C31.8 23.45 31.59 23.68 31.59 23.95V27.03C31.59 27.32 31.82 27.53 32.09 27.53H40.24C40.53 27.53 40.74 27.3 40.74 27.03V23.95C40.74 23.66 40.51 23.45 40.24 23.45H32.09Z" fill="#4693A5"/>
<path d="M36.17 31.52C34.28 31.52 32.73 29.9901 32.73 28.0801C32.73 27.7801 32.97 27.55 33.26 27.55C33.55 27.55 33.79 27.7901 33.79 28.0801C33.79 29.3801 34.85 30.4399 36.15 30.4399C37.45 30.4399 38.51 29.3801 38.51 28.0801C38.51 27.7801 38.75 27.55 39.04 27.55C39.33 27.55 39.57 27.7901 39.57 28.0801C39.6 29.9801 38.06 31.52 36.16 31.52H36.17Z" fill="#4693A5"/>
<path d="M39.26 26.03H33.07C32.77 26.03 32.54 25.79 32.54 25.5C32.54 25.21 32.78 24.97 33.07 24.97H39.26C39.56 24.97 39.79 25.21 39.79 25.5C39.79 25.79 39.56 26.03 39.26 26.03Z" fill="#4693A5"/>
<path d="M35.74 9.33008C35.74 9.33008 35.64 9.33007 35.6 9.32007C35.31 9.24007 35.15 8.94992 35.22 8.66992L36.08 5.48999C36.16 5.19999 36.45 5.04011 36.73 5.11011C37.02 5.19011 37.18 5.48001 37.11 5.76001L36.25 8.93994C36.18 9.16994 35.96 9.33008 35.73 9.33008H35.74Z" fill="#4693A5"/>
<path d="M33.56 9.33018C33.45 9.33018 33.36 9.30008 33.26 9.23008L30.94 7.67002C30.79 7.57002 30.71 7.40007 30.71 7.22007C30.71 7.04007 30.81 6.88012 30.94 6.77012L33.26 5.21006C33.5 5.05006 33.84 5.11021 34.01 5.36021C34.18 5.61021 34.11 5.94021 33.86 6.11021L32.2 7.22007L33.86 8.33018C34.1 8.49018 34.17 8.83018 34.01 9.08018C33.9 9.24018 33.72 9.32017 33.56 9.32017V9.33018Z" fill="#4693A5"/>
<path d="M38.79 9.33001C38.61 9.33001 38.45 9.25003 38.34 9.10003C38.18 8.86003 38.24 8.52003 38.49 8.35003L40.15 7.23993L38.49 6.12982C38.25 5.96982 38.18 5.62982 38.34 5.37982C38.5 5.12982 38.84 5.06992 39.09 5.22992L41.41 6.78997C41.56 6.88997 41.64 7.05993 41.64 7.23993C41.64 7.41993 41.54 7.57988 41.41 7.68988L39.09 9.24994C38.99 9.29994 38.89 9.33001 38.79 9.33001Z" fill="#4693A5"/>
<path d="M39.57 11.25H32.77C32.47 11.25 32.24 11.01 32.24 10.72C32.24 10.43 32.48 10.1899 32.77 10.1899H39.57C39.87 10.1899 40.1 10.43 40.1 10.72C40.1 11.01 39.86 11.25 39.57 11.25Z" fill="#4693A5"/>
<path d="M39.57 13.1699H32.77C32.47 13.1699 32.24 12.9299 32.24 12.6399C32.24 12.3499 32.48 12.1101 32.77 12.1101H39.57C39.87 12.1101 40.1 12.3499 40.1 12.6399C40.1 12.9299 39.86 13.1699 39.57 13.1699Z" fill="#4693A5"/>
<path d="M51.62 26.1201C49.07 26.1201 46.9901 24.04 46.9901 21.49C46.9901 18.94 49.07 16.8601 51.62 16.8601C54.17 16.8601 56.25 18.94 56.25 21.49C56.25 24.04 54.17 26.1201 51.62 26.1201ZM51.62 17.9299C49.65 17.9299 48.06 19.53 48.06 21.49C48.06 23.45 49.66 25.05 51.62 25.05C53.58 25.05 55.18 23.45 55.18 21.49C55.18 19.53 53.59 17.9299 51.62 17.9299Z" fill="#4693A5"/>
<path d="M53.53 30.3H49.7101C49.4101 30.3 49.18 30.06 49.18 29.77V28.1101C49 28.0401 48.84 27.9699 48.66 27.8899L47.4901 29.0601C47.3901 29.1601 47.26 29.22 47.11 29.22C46.96 29.22 46.84 29.1701 46.73 29.0601L44.03 26.3601C43.83 26.1601 43.83 25.8201 44.03 25.6001L45.2 24.4299C45.12 24.2699 45.05 24.0899 44.98 23.9099H43.3201C43.0201 23.9099 42.79 23.6699 42.79 23.3799V19.5601C42.79 19.2601 43.0301 19.03 43.3201 19.03H44.98C45.05 18.85 45.12 18.69 45.2 18.51L44.03 17.3401C43.83 17.1401 43.83 16.8001 44.03 16.5801L46.73 13.8799C46.93 13.6799 47.2701 13.6799 47.4901 13.8799L48.66 15.05C48.82 14.97 49 14.9001 49.18 14.8301V13.1699C49.18 12.8699 49.4201 12.6399 49.7101 12.6399H53.53C53.83 12.6399 54.06 12.8799 54.06 13.1699V14.8301C54.24 14.9001 54.4 14.97 54.58 15.05L55.75 13.8799C55.95 13.6799 56.29 13.6799 56.51 13.8799L59.2101 16.5801C59.3101 16.6801 59.37 16.81 59.37 16.96C59.37 17.11 59.3201 17.2301 59.2101 17.3401L58.04 18.51C58.12 18.67 58.19 18.85 58.26 19.03H59.9C60.2 19.03 60.43 19.2701 60.43 19.5601V23.3799C60.43 23.6799 60.19 23.9099 59.9 23.9099H58.2401C58.1701 24.0899 58.1 24.2499 58.0201 24.4299L59.19 25.6001C59.29 25.7001 59.3501 25.83 59.3501 25.98C59.3501 26.13 59.3 26.2501 59.19 26.3601L56.5 29.0801C56.4 29.1801 56.27 29.24 56.12 29.24C55.98 29.24 55.8501 29.1901 55.7401 29.0801L54.5701 27.9099C54.4101 27.9899 54.23 28.0599 54.05 28.1299V29.79C54.05 30.06 53.8201 30.3101 53.5201 30.3101L53.53 30.3ZM50.25 29.23H52.9901V27.72C52.9901 27.49 53.14 27.27 53.37 27.2C53.74 27.09 54.09 26.94 54.43 26.77C54.63 26.66 54.89 26.7001 55.05 26.8701L56.11 27.9299L58.05 25.99L56.9901 24.9299C56.8301 24.7699 56.79 24.5101 56.89 24.3101C57.07 23.9701 57.2201 23.62 57.3201 23.25C57.3901 23.02 57.59 22.8701 57.84 22.8701H59.3501V20.1299H57.86C57.63 20.1299 57.41 19.98 57.34 19.75C57.23 19.38 57.08 19.0299 56.91 18.6899C56.8 18.4899 56.84 18.2301 57.01 18.0701L58.0701 17.01L56.1301 15.0701L55.0701 16.1299C54.9101 16.2899 54.65 16.33 54.45 16.23C54.11 16.05 53.76 15.9 53.39 15.8C53.16 15.73 53.01 15.53 53.01 15.28V13.77H50.2701V15.28C50.2701 15.51 50.12 15.73 49.89 15.8C49.52 15.91 49.17 16.06 48.83 16.23C48.63 16.34 48.3701 16.2999 48.2101 16.1299L47.15 15.0701L45.2101 17.01L46.2701 18.0701C46.4301 18.2301 46.47 18.4899 46.37 18.6899C46.19 19.0299 46.04 19.38 45.94 19.75C45.87 19.98 45.67 20.1299 45.42 20.1299H43.9V22.8701H45.39C45.62 22.8701 45.84 23.02 45.91 23.25C46.02 23.62 46.17 23.9701 46.34 24.3101C46.45 24.5101 46.4101 24.7699 46.2401 24.9299L45.18 25.99L47.12 27.9299L48.18 26.8701C48.34 26.7101 48.6 26.67 48.8 26.77C49.14 26.95 49.49 27.1 49.86 27.2C50.09 27.27 50.2401 27.47 50.2401 27.72V29.23H50.25Z" fill="#4693A5"/>
</svg>
