<svg width="86" height="44" viewBox="0 0 86 44" fill="none" xmlns="http://www.w3.org/2000/svg">
<path d="M66.11 7.55005C77.74 15.1 85.43 28.19 85.43 43.09" stroke="#95D2E5" stroke-miterlimit="10"/>
<path d="M0.77002 43.09C0.77002 28.19 8.46003 15.09 20.09 7.55005" stroke="#95D2E5" stroke-miterlimit="10"/>
<path d="M44.45 37.4399H41.75C41.47 37.4399 41.25 37.22 41.23 36.95L41.16 35.45C40.6 35.29 40.06 35.07 39.55 34.78L38.44 35.79C38.24 35.98 37.92 35.97 37.73 35.77L35.82 33.86C35.62 33.67 35.62 33.35 35.8 33.15L36.81 32.04C36.52 31.53 36.3 30.9901 36.14 30.4301L34.64 30.36C34.36 30.35 34.15 30.12 34.15 29.84V27.14C34.15 26.86 34.37 26.64 34.64 26.62L36.14 26.55C36.3 25.99 36.52 25.4499 36.81 24.9399L35.8 23.83C35.61 23.63 35.62 23.31 35.82 23.12L37.73 21.21C37.93 21.01 38.24 21.0099 38.44 21.1899L39.55 22.2C40.06 21.91 40.6 21.69 41.16 21.53L41.23 20.03C41.24 19.75 41.47 19.54 41.75 19.54H44.45C44.73 19.54 44.95 19.76 44.97 20.03L45.04 21.53C45.6 21.69 46.14 21.91 46.65 22.2L47.76 21.1899C47.96 20.9999 48.28 21.01 48.47 21.21L50.38 23.12C50.58 23.31 50.58 23.63 50.4 23.83L49.39 24.9399C49.68 25.4499 49.9 25.99 50.06 26.55L51.56 26.62C51.84 26.63 52.05 26.86 52.05 27.14V29.84C52.05 30.12 51.83 30.34 51.56 30.36L50.06 30.4301C49.9 30.9901 49.68 31.53 49.39 32.04L50.4 33.15C50.59 33.35 50.58 33.67 50.38 33.86L48.47 35.77C48.28 35.97 47.96 35.97 47.76 35.79L46.65 34.78C46.14 35.07 45.6 35.29 45.04 35.45L44.97 36.95C44.96 37.23 44.73 37.4399 44.45 37.4399ZM42.24 36.41H43.96L44.03 35.02C44.04 34.79 44.21 34.59 44.44 34.54C45.15 34.39 45.83 34.11 46.44 33.71C46.64 33.58 46.89 33.61 47.07 33.76L48.1 34.7L49.31 33.49L48.37 32.46C48.21 32.29 48.19 32.03 48.32 31.83C48.72 31.21 48.99 30.54 49.15 29.83C49.2 29.6 49.4 29.43 49.63 29.42L51.02 29.35V27.63L49.63 27.5601C49.4 27.5501 49.2 27.38 49.15 27.15C48.99 26.44 48.72 25.76 48.32 25.15C48.19 24.95 48.22 24.7 48.37 24.52L49.3 23.49L48.09 22.28L47.06 23.22C46.89 23.38 46.63 23.4 46.43 23.27C45.81 22.87 45.14 22.5999 44.43 22.4399C44.2 22.3899 44.03 22.19 44.02 21.96L43.95 20.5699H42.23L42.16 21.96C42.15 22.19 41.98 22.3899 41.75 22.4399C41.04 22.5999 40.36 22.88 39.75 23.27C39.55 23.4 39.3 23.37 39.12 23.22L38.09 22.28L36.88 23.49L37.81 24.52C37.97 24.69 37.99 24.95 37.86 25.15C37.46 25.77 37.18 26.44 37.03 27.15C36.98 27.38 36.78 27.5501 36.55 27.5601L35.16 27.63V29.35L36.55 29.42C36.78 29.43 36.98 29.6 37.03 29.83C37.19 30.54 37.46 31.22 37.86 31.83C37.99 32.03 37.96 32.28 37.81 32.46L36.88 33.49L38.09 34.7L39.12 33.76C39.29 33.6 39.55 33.58 39.75 33.71C40.37 34.11 41.04 34.39 41.75 34.54C41.98 34.59 42.15 34.79 42.16 35.02L42.23 36.41H42.24Z" fill="#4693A5"/>
<path d="M43.1 31.3101C41.55 31.3101 40.28 30.04 40.28 28.49C40.28 26.94 41.54 25.67 43.1 25.67C44.66 25.67 45.92 26.93 45.92 28.49C45.92 30.05 44.65 31.3101 43.1 31.3101ZM43.1 26.71C42.12 26.71 41.31 27.51 41.31 28.5C41.31 29.49 42.11 30.29 43.1 30.29C44.09 30.29 44.89 29.49 44.89 28.5C44.89 27.51 44.09 26.71 43.1 26.71Z" fill="#4693A5"/>
<path d="M44.45 18.28H41.75C41.47 18.28 41.25 18.06 41.23 17.79L41.16 16.29C40.6 16.13 40.06 15.91 39.55 15.62L38.44 16.63C38.24 16.81 37.92 16.81 37.73 16.61L35.82 14.7C35.62 14.5 35.62 14.19 35.8 13.99L36.81 12.88C36.52 12.37 36.3 11.83 36.14 11.27L34.64 11.2C34.36 11.19 34.15 10.9601 34.15 10.6801V7.97998C34.15 7.69998 34.37 7.47996 34.64 7.45996L36.14 7.39001C36.3 6.83001 36.52 6.29003 36.81 5.78003L35.8 4.67004C35.61 4.47004 35.62 4.14996 35.82 3.95996L37.73 2.05005C37.93 1.85005 38.24 1.85003 38.44 2.03003L39.55 3.04004C40.06 2.75004 40.6 2.53 41.16 2.37L41.23 0.869995C41.24 0.589995 41.47 0.380005 41.75 0.380005H44.45C44.73 0.380005 44.95 0.599995 44.97 0.869995L45.04 2.37C45.6 2.53 46.14 2.75004 46.65 3.04004L47.76 2.03003C47.96 1.85003 48.28 1.85005 48.47 2.05005L50.38 3.95996C50.57 4.15996 50.58 4.47004 50.4 4.67004L49.39 5.78003C49.68 6.29003 49.9 6.83001 50.06 7.39001L51.56 7.45996C51.84 7.46996 52.05 7.69998 52.05 7.97998V10.6801C52.05 10.9601 51.83 11.18 51.56 11.2L50.06 11.27C49.9 11.83 49.68 12.37 49.39 12.88L50.4 13.99C50.59 14.19 50.58 14.51 50.38 14.7L48.47 16.61C48.28 16.81 47.96 16.81 47.76 16.63L46.65 15.62C46.14 15.91 45.6 16.13 45.04 16.29L44.97 17.79C44.96 18.07 44.73 18.28 44.45 18.28ZM42.24 17.25H43.96L44.03 15.86C44.04 15.63 44.21 15.43 44.44 15.38C45.15 15.22 45.83 14.95 46.44 14.55C46.64 14.42 46.89 14.45 47.07 14.6L48.1 15.54L49.31 14.33L48.37 13.3C48.21 13.13 48.19 12.87 48.32 12.67C48.72 12.05 48.99 11.38 49.15 10.67C49.2 10.44 49.4 10.27 49.63 10.26L51.02 10.1899V8.46997L49.63 8.40002C49.4 8.39002 49.2 8.21999 49.15 7.98999C48.99 7.27999 48.72 6.59999 48.32 5.98999C48.19 5.78999 48.22 5.53999 48.37 5.35999L49.31 4.32996L48.1 3.12L47.07 4.06006C46.9 4.22006 46.64 4.23999 46.44 4.10999C45.82 3.70999 45.15 3.43003 44.44 3.28003C44.21 3.23003 44.04 3.03005 44.03 2.80005L43.96 1.41003H42.24L42.17 2.80005C42.16 3.03005 41.99 3.23003 41.76 3.28003C41.05 3.44003 40.37 3.70999 39.76 4.10999C39.56 4.23999 39.31 4.21006 39.13 4.06006L38.1 3.12L36.89 4.32996L37.82 5.35999C37.98 5.52999 38 5.78999 37.87 5.98999C37.47 6.60999 37.19 7.27999 37.04 7.98999C36.99 8.21999 36.79 8.39002 36.56 8.40002L35.17 8.46997V10.1899L36.56 10.26C36.79 10.27 36.99 10.44 37.04 10.67C37.2 11.38 37.47 12.06 37.87 12.67C38 12.87 37.97 13.12 37.82 13.3L36.89 14.33L38.1 15.54L39.13 14.6C39.3 14.44 39.56 14.42 39.76 14.55C40.38 14.95 41.05 15.22 41.76 15.38C41.99 15.43 42.16 15.63 42.17 15.86L42.24 17.25Z" fill="#4693A5"/>
<path d="M43.1 12.15C41.55 12.15 40.28 10.89 40.28 9.32996C40.28 7.76996 41.54 6.51001 43.1 6.51001C44.66 6.51001 45.92 7.76996 45.92 9.32996C45.92 10.89 44.65 12.15 43.1 12.15ZM43.1 7.55005C42.12 7.55005 41.31 8.34997 41.31 9.33997C41.31 10.33 42.11 11.13 43.1 11.13C44.09 11.13 44.89 10.33 44.89 9.33997C44.89 8.34997 44.09 7.55005 43.1 7.55005Z" fill="#4693A5"/>
<path d="M18.65 22.51C18.53 22.51 18.41 22.47 18.31 22.39L14.72 19.31C14.61 19.21 14.54 19.07 14.54 18.92C14.54 18.77 14.61 18.63 14.72 18.53L18.31 15.4499C18.46 15.3199 18.68 15.2899 18.86 15.3699C19.04 15.4499 19.16 15.6399 19.16 15.8399V16.8499H33.72C34.01 16.8499 34.24 17.0799 34.24 17.3699C34.24 17.6599 34.01 17.89 33.72 17.89H18.65C18.36 17.89 18.13 17.6599 18.13 17.3699V16.9699L15.85 18.92L18.13 20.8699V20.4699C18.13 20.1799 18.36 19.9499 18.65 19.9499H33.72C34.01 19.9499 34.24 20.1799 34.24 20.4699C34.24 20.7599 34.01 20.9899 33.72 20.9899H19.16V22C19.16 22.2 19.04 22.3899 18.86 22.4699C18.79 22.4999 18.72 22.52 18.64 22.52L18.65 22.51Z" fill="#4693A5"/>
<path d="M31.86 11.54C31.74 11.54 31.62 11.5 31.52 11.42L30.48 10.53C27.83 8.26998 24.48 6.96994 21 6.85994V7.73994C21 7.93994 20.88 8.12991 20.7 8.20991C20.52 8.28991 20.3 8.25996 20.15 8.12996L16.85 5.3C16.74 5.2 16.67 5.05999 16.67 4.90999C16.67 4.75999 16.74 4.61997 16.85 4.51997L20.15 1.6899C20.3 1.5599 20.52 1.52994 20.7 1.60994C20.88 1.68994 21 1.87991 21 2.07991V2.96992H21.04C24.95 2.96992 28.73 4.36999 31.71 6.90999L32.19 7.32991C32.41 7.51991 32.43 7.84001 32.24 8.06001C32.05 8.28001 31.73 8.29994 31.51 8.10994L31.03 7.6999C28.25 5.3199 24.7 4.00996 21.04 4.00996H20.48C20.19 4.00996 19.96 3.77994 19.96 3.48994V3.20991L17.97 4.92L19.96 6.61995V6.33992C19.96 6.04992 20.19 5.8199 20.48 5.8199C24.39 5.8199 28.18 7.21995 31.15 9.74995L32.19 10.64C32.41 10.83 32.43 11.1499 32.25 11.3699C32.15 11.4899 32 11.55 31.86 11.55V11.54Z" fill="#4693A5"/>
<path d="M20.5 36.27C20.38 36.27 20.26 36.23 20.16 36.15L16.86 33.32C16.75 33.22 16.68 33.0801 16.68 32.9301C16.68 32.7801 16.75 32.6401 16.86 32.5401L20.16 29.71C20.31 29.58 20.53 29.55 20.71 29.63C20.89 29.71 21.01 29.9 21.01 30.1V30.98C24.49 30.86 27.84 29.5701 30.49 27.3101L31.53 26.4201C31.75 26.2301 32.07 26.26 32.26 26.48C32.45 26.7 32.42 27.02 32.2 27.21L31.16 28.1C28.19 30.64 24.41 32.03 20.49 32.03C20.2 32.03 19.97 31.8 19.97 31.51V31.23L17.98 32.9301L19.97 34.64V34.36C19.97 34.07 20.2 33.84 20.49 33.84H21.05C24.71 33.84 28.26 32.53 31.04 30.15L31.52 29.74C31.74 29.55 32.06 29.5801 32.25 29.7901C32.44 30.0101 32.41 30.33 32.2 30.52L31.72 30.9301C28.75 33.4701 24.96 34.87 21.05 34.87H21.01V35.76C21.01 35.96 20.89 36.15 20.71 36.23C20.64 36.26 20.57 36.28 20.49 36.28L20.5 36.27Z" fill="#4693A5"/>
<path d="M67.55 22.51C67.48 22.51 67.4 22.4899 67.33 22.4599C67.15 22.3799 67.03 22.1899 67.03 21.9899V20.9799H52.47C52.18 20.9799 51.95 20.7499 51.95 20.4599C51.95 20.1699 52.18 19.9399 52.47 19.9399H67.54C67.83 19.9399 68.06 20.1699 68.06 20.4599V20.8599L70.34 18.91L68.06 16.9599V17.3599C68.06 17.6499 67.83 17.88 67.54 17.88H52.47C52.18 17.88 51.95 17.6499 51.95 17.3599C51.95 17.0699 52.18 16.8399 52.47 16.8399H67.03V15.8299C67.03 15.6299 67.15 15.4399 67.33 15.3599C67.51 15.2799 67.73 15.3099 67.88 15.4399L71.47 18.52C71.58 18.62 71.65 18.76 71.65 18.91C71.65 19.06 71.58 19.2 71.47 19.3L67.88 22.38C67.78 22.46 67.66 22.5 67.54 22.5L67.55 22.51Z" fill="#4693A5"/>
<path d="M54.34 11.54C54.19 11.54 54.05 11.4799 53.95 11.3599C53.76 11.1399 53.79 10.82 54.01 10.63L55.05 9.73994C58.02 7.20994 61.8 5.81001 65.72 5.81001C66.01 5.81001 66.24 6.03991 66.24 6.32991V6.60994L68.23 4.90999L66.24 3.1999V3.47993C66.24 3.76993 66.01 3.99995 65.72 3.99995H65.16C61.5 3.99995 57.95 5.3099 55.17 7.6899L54.69 8.09993C54.47 8.28993 54.15 8.26 53.96 8.05C53.77 7.83 53.8 7.5099 54.01 7.3199L54.49 6.90999C57.46 4.36999 61.25 2.96992 65.16 2.96992H65.2V2.07991C65.2 1.87991 65.32 1.68994 65.5 1.60994C65.68 1.52994 65.9 1.5599 66.05 1.6899L69.35 4.51997C69.46 4.61997 69.53 4.75999 69.53 4.90999C69.53 5.05999 69.46 5.2 69.35 5.3L66.05 8.12996C65.9 8.25996 65.68 8.28991 65.5 8.20991C65.32 8.12991 65.2 7.93994 65.2 7.73994V6.85994C61.72 6.97994 58.37 8.26998 55.72 10.53L54.68 11.42C54.58 11.5 54.46 11.54 54.34 11.54Z" fill="#4693A5"/>
<path d="M65.71 36.27C65.64 36.27 65.56 36.2499 65.49 36.2199C65.31 36.1399 65.19 35.9499 65.19 35.7499V34.8599H65.15C61.24 34.8599 57.46 33.46 54.48 30.92L54 30.4999C53.78 30.3099 53.76 29.99 53.95 29.77C54.14 29.55 54.46 29.5299 54.68 29.7199L55.16 30.1299C57.94 32.5099 61.49 33.8199 65.15 33.8199H65.71C66 33.8199 66.23 34.0499 66.23 34.3399V34.6199L68.22 32.91L66.23 31.2099V31.4899C66.23 31.7799 66 32.01 65.71 32.01C61.8 32.01 58.01 30.6099 55.04 28.0799L54 27.1899C53.78 26.9999 53.76 26.6799 53.94 26.4599C54.13 26.2399 54.45 26.22 54.67 26.4L55.71 27.29C58.36 29.55 61.71 30.8499 65.19 30.9599V30.0799C65.19 29.8799 65.31 29.6899 65.49 29.6099C65.67 29.5299 65.89 29.5599 66.04 29.6899L69.34 32.52C69.45 32.62 69.52 32.76 69.52 32.91C69.52 33.06 69.45 33.2 69.34 33.3L66.04 36.1299C65.94 36.2099 65.82 36.2499 65.7 36.2499L65.71 36.27Z" fill="#4693A5"/>
</svg>
