<svg width="86" height="54" viewBox="0 0 86 54" fill="none" xmlns="http://www.w3.org/2000/svg">
<path d="M60.58 14.5699C75.24 21.2199 85.44 35.99 85.44 53.14" stroke="#95D2E5" stroke-miterlimit="10"/>
<path d="M0.77002 53.14C0.77002 35.62 11.42 20.58 26.6 14.15" stroke="#95D2E5" stroke-miterlimit="10"/>
<path d="M29.46 48.08H23.52V36.48H29.46V48.08ZM24.59 47.01H28.39V37.5601H24.59V47.01Z" fill="#4693A5"/>
<path d="M33.85 48.0799C32.94 48.0799 32.12 48.0499 31.44 47.9899C29.78 47.8399 28.96 47.5399 28.68 46.9799L29.64 46.5L29.63 46.4799C29.87 46.7499 31.6 47.1199 35.42 46.9799C38.39 46.8799 40.82 46.5399 41.32 46.3499C41.91 45.4499 45.04 39.24 45.31 37.79C45.36 37.53 45.41 37.27 45.47 37.02C45.62 36.33 45.81 35.4799 45.59 35.1999C45.47 35.0599 45.18 35.03 44.95 35.03H35.24L35.43 34.3499C35.79 33.0599 36.74 29.4699 36.74 28.4399C36.74 27.8599 36.53 27.37 36.2 27.15C35.95 26.99 35.64 26.99 35.27 27.15C34.68 27.47 32.41 31.54 29.64 37.8L28.66 37.3699C28.66 37.3699 29.82 34.7499 31.12 32.1099C33.83 26.6199 34.53 26.31 34.83 26.18C35.53 25.87 36.22 25.9 36.77 26.25C37.41 26.67 37.79 27.48 37.79 28.43C37.79 29.53 37.01 32.5499 36.63 33.9499H44.93C45.6 33.9499 46.1 34.14 46.4 34.52C46.94 35.2 46.72 36.1899 46.49 37.2399C46.44 37.4799 46.38 37.7299 46.34 37.9699C46.02 39.7299 42.54 46.48 42.11 47.05C41.98 47.23 41.7 47.6 37.83 47.91C36.45 48.02 35.07 48.0799 33.84 48.0799H33.85Z" fill="#4693A5"/>
<path d="M61.11 36L56.27 30.15H43.2C41.93 30.15 40.9 29.12 40.9 27.85V24.4399H41.97V27.85C41.97 28.53 42.52 29.08 43.2 29.08H56.77L60.04 33.03V15.3101C60.04 14.6301 59.49 14.08 58.81 14.08H54.8V13.01H58.81C60.08 13.01 61.11 14.0401 61.11 15.3101V36Z" fill="#4693A5"/>
<path d="M25.94 33.1801V3.27002C25.94 1.54002 27.35 0.130005 29.08 0.130005H52.19C53.92 0.130005 55.33 1.54002 55.33 3.27002V21.84C55.33 23.57 53.92 24.98 52.19 24.98H32.72L25.93 33.17L25.94 33.1801ZM29.09 1.19995C27.95 1.19995 27.02 2.13002 27.02 3.27002V30.21L32.23 23.92H52.2C53.34 23.92 54.27 22.99 54.27 21.85V3.28003C54.27 2.14003 53.34 1.20996 52.2 1.20996H29.09V1.19995Z" fill="#4693A5"/>
<path d="M45.09 6.93994H32.4V8.01001H45.09V6.93994Z" fill="#4693A5"/>
<path d="M50.06 11.9301H32.09V13H50.06V11.9301Z" fill="#4693A5"/>
<path d="M50.06 16.87H32.09V17.9399H50.06V16.87Z" fill="#4693A5"/>
</svg>
