<svg width="86" height="57" viewBox="0 0 86 57" fill="none" xmlns="http://www.w3.org/2000/svg">
<path d="M60.28 17.4399C75.1 24.0299 85.43 38.8799 85.43 56.1399" stroke="#95D2E5" stroke-linecap="round" stroke-linejoin="round"/>
<path d="M0.77002 56.1399C0.77002 39.0299 10.92 24.28 25.54 17.61" stroke="#95D2E5" stroke-linecap="round" stroke-linejoin="round"/>
<path d="M42.96 50.8C30.98 50.8 21.23 41.0499 21.23 29.0699C21.23 17.0899 30.98 7.33997 42.96 7.33997C54.94 7.33997 64.69 17.0899 64.69 29.0699C64.69 41.0499 54.94 50.8 42.96 50.8ZM42.96 8.84998C31.81 8.84998 22.73 17.92 22.73 29.08C22.73 40.24 31.8 49.3101 42.96 49.3101C54.12 49.3101 63.19 40.24 63.19 29.08C63.19 17.92 54.12 8.84998 42.96 8.84998Z" fill="#4693A5"/>
<path d="M43.71 1.45996H42.21V8.09998H43.71V1.45996Z" fill="#4693A5"/>
<path d="M47.85 0.709961H38.07V2.20996H47.85V0.709961Z" fill="#4693A5"/>
<path d="M24.7378 10.6472L23.6771 11.7079L27.1774 15.2081L28.238 14.1475L24.7378 10.6472Z" fill="#4693A5"/>
<path d="M61.1861 10.6557L57.6859 14.1559L58.7466 15.2165L62.2468 11.7164L61.1861 10.6557Z" fill="#4693A5"/>
<path d="M50.23 35.5L49.11 34.51C50.44 33.01 51.16 31.08 51.16 29.08C51.16 24.56 47.48 20.88 42.96 20.88V19.38C48.31 19.38 52.66 23.73 52.66 29.08C52.66 31.45 51.8 33.73 50.23 35.5Z" fill="#4693A5"/>
<path d="M44.4126 28.908L43.352 29.9686L52.2969 38.9135L53.3576 37.8529L44.4126 28.908Z" fill="#4693A5"/>
</svg>
