<svg width="86" height="56" viewBox="0 0 86 56" fill="none" xmlns="http://www.w3.org/2000/svg">
<path d="M74.17 26.72C81.16 34.27 85.43 44.37 85.43 55.47" stroke="#95D2E5" stroke-linecap="round" stroke-linejoin="round"/>
<path d="M0.77002 55.47C0.77002 43.53 5.71998 32.74 13.67 25.04" stroke="#95D2E5" stroke-linecap="round" stroke-linejoin="round"/>
<path d="M70.54 0.72998H17.21C15.11 0.72998 13.4 2.44004 13.4 4.54004V31.9099C13.4 34.0099 15.11 35.72 17.21 35.72H40.84V46.1799H30.1C28.99 46.1799 28.08 47.09 28.08 48.2C28.08 49.31 28.98 50.22 30.1 50.22H57.66C58.77 50.22 59.68 49.31 59.68 48.2C59.68 47.09 58.77 46.1799 57.66 46.1799H46.92V35.72H70.54C72.64 35.72 74.35 34.0099 74.35 31.9099V4.54004C74.35 2.44004 72.64 0.72998 70.54 0.72998ZM58.68 48.1899C58.68 48.7499 58.22 49.21 57.66 49.21H30.1C29.54 49.21 29.08 48.7499 29.08 48.1899C29.08 47.6299 29.54 47.1699 30.1 47.1699H57.66C58.22 47.1699 58.68 47.6299 58.68 48.1899ZM45.92 46.1799H41.84V35.72H45.92V46.1799ZM73.35 31.9099C73.35 33.4599 72.09 34.72 70.54 34.72H17.21C15.66 34.72 14.4 33.4599 14.4 31.9099V4.54004C14.4 2.99004 15.66 1.72998 17.21 1.72998H70.54C72.09 1.72998 73.35 2.99004 73.35 4.54004V31.9099Z" fill="#4693A5"/>
<path d="M70.09 3.61011H17.66C16.9 3.61011 16.28 4.22999 16.28 4.98999V31.45C16.28 32.21 16.9 32.8301 17.66 32.8301H70.09C70.85 32.8301 71.47 32.21 71.47 31.45V4.98999C71.47 4.22999 70.85 3.61011 70.09 3.61011ZM70.47 31.46C70.47 31.67 70.3 31.8401 70.09 31.8401H17.66C17.45 31.8401 17.28 31.67 17.28 31.46V5C17.28 4.79 17.45 4.62012 17.66 4.62012H70.09C70.3 4.62012 70.47 4.79 70.47 5V31.46Z" fill="#4693A5"/>
<path d="M66.24 10.46H63.38V11.46H64.7L62.79 13.3799L62.16 12.75V7.17993H61.16V11.75L60.44 11.03L57.08 14.3799V7.17993H56.08V15.3799L55.13 16.3301L52 13.2V7.17993H51V13.6799L46.92 17.76V7.17993H45.92V18.76L41.84 22.8401V7.17993H40.84V22.55L36.76 18.47V7.17993H35.76V17.47L35.49 17.21L31.68 21.02V7.17993H30.68V22.02L30.28 22.4199L27.23 19.3601L26.6 19.99V7.17993H25.6V20.99L21.52 25.0701V7.17993H20.52V26.0701L20.47 26.1101L20.52 26.1599V29.9099H21.52V26.48L25.6 22.3999V29.9099H26.6V21.3999L27.23 20.78L30.28 23.8301L30.68 23.4399V29.9099H31.68V22.4399L35.49 18.6201L35.76 18.8899V29.9099H36.76V19.8899L40.84 23.97V29.9099H41.84V24.25L45.92 20.1699V29.9099H46.92V19.1699L51 15.0901V29.9099H52V14.6201L55.13 17.75L56.08 16.8V29.9099H57.08V15.8L60.44 12.4399L61.16 13.1699V29.9099H62.16V14.1699L62.79 14.79L65.33 12.25V13.52H66.24V29.9099H67.24V7.17993H66.24V10.46Z" fill="#4693A5"/>
</svg>
