<svg viewBox="0 0 372 90" fill="none" xmlns="http://www.w3.org/2000/svg" style="--primary-color: #FFFFFF; --secondary-color: #E6E6E5;">
<path d="M55.45 0.810059H73.32C76.41 0.810059 79.14 1.42005 81.49 2.65005C83.84 3.88005 85.66 5.61006 86.94 7.83006C88.23 10.0501 88.87 12.6301 88.87 15.5501C88.87 18.4701 88.21 21.1001 86.9 23.3101C85.58 25.5301 83.73 27.2201 81.33 28.4001C78.93 29.5801 76.15 30.1701 72.97 30.1701H66.47V42.8201H55.44V0.810059H55.45ZM70.77 21.5901C72.84 21.5701 74.45 21.0201 75.62 19.9501C76.78 18.8801 77.35 17.4101 77.33 15.5501C77.35 13.7101 76.78 12.2701 75.62 11.2301C74.46 10.1901 72.84 9.65007 70.77 9.63007H66.48V21.5801H70.77V21.5901Z" fill="var(--primary-color)"/>
<path d="M93.23 0.810059H104.26V33.8901H121.38V42.83H93.24V0.820068L93.23 0.810059Z" fill="var(--primary-color)"/>
<path d="M124.71 42.83L138.7 0.820068H153.73L167.66 42.83H155.76L153.24 34.5901H139.17L136.67 42.83H124.72H124.71ZM150.68 26.2301L146.36 12.1301H146.01L141.72 26.2301H150.69H150.68Z" fill="var(--primary-color)"/>
<path d="M165.3 0.810059H201.51V9.75006H188.86V42.83H177.95V9.75006H165.3V0.810059Z" fill="var(--primary-color)"/>
<path d="M205.98 0.810059H235.29V9.75006H217.01V17.3501H233.43V26.2901H217.01V42.83H205.98V0.820068V0.810059Z" fill="var(--primary-color)"/>
<path d="M277.42 33.48C275.64 36.73 273.21 39.2 270.14 40.88C267.06 42.56 263.61 43.4 259.78 43.4C255.95 43.4 252.44 42.55 249.36 40.86C246.28 39.17 243.86 36.7 242.08 33.45C240.3 30.2 239.41 26.32 239.41 21.82C239.41 17.32 240.3 13.41 242.08 10.16C243.86 6.90999 246.29 4.43998 249.36 2.75998C252.44 1.07998 255.91 0.23999 259.78 0.23999C263.65 0.23999 267.06 1.07998 270.14 2.75998C273.22 4.43998 275.64 6.90999 277.42 10.16C279.2 13.41 280.09 17.3 280.09 21.82C280.09 26.34 279.2 30.23 277.42 33.48ZM253.1 30.67C254.65 32.72 256.87 33.76 259.77 33.77C262.65 33.75 264.87 32.72 266.41 30.67C267.96 28.62 268.72 25.67 268.7 21.82C268.72 17.95 267.96 14.99 266.41 12.94C264.86 10.89 262.65 9.85999 259.77 9.85999C256.89 9.85999 254.64 10.89 253.1 12.94C251.55 14.99 250.78 17.95 250.78 21.82C250.78 25.69 251.55 28.62 253.1 30.67Z" fill="var(--primary-color)"/>
<path d="M285.48 0.810059H303.35C306.46 0.810059 309.2 1.38007 311.55 2.52007C313.9 3.66007 315.71 5.30006 316.99 7.44006C318.27 9.58006 318.9 12.1101 318.9 15.0301C318.9 17.9501 318.28 20.3401 317.03 22.3901C315.78 24.4301 314.01 25.9901 311.71 27.0801L320.3 42.8401H308.29L300.83 28.8501H296.51V42.8401H285.48V0.830063V0.810059ZM300.8 20.1901C305.19 20.1901 307.38 18.4701 307.36 15.0301C307.38 13.2101 306.82 11.8601 305.69 10.9801C304.56 10.1001 302.93 9.65007 300.8 9.63007H296.51V20.1901H300.8Z" fill="var(--primary-color)"/>
<path d="M337.65 0.810059L347.63 25.2401H348.15L358.13 0.810059H371.88V42.8201H361.09V18.1001H360.74L351.17 42.5301H344.55L335.03 17.9301H334.68V42.8201H323.89V0.810059H337.64H337.65Z" fill="var(--primary-color)"/>
<path d="M55.45 47.1699H84.76V56.1099H66.48V63.7099H82.9V72.6499H66.48V89.1899H55.45V47.1799V47.1699Z" fill="var(--primary-color)"/>
<path d="M126.89 79.8401C125.11 83.0901 122.68 85.5601 119.61 87.2401C116.53 88.9201 113.08 89.7601 109.25 89.7601C105.42 89.7601 101.91 88.9101 98.83 87.2201C95.75 85.5301 93.33 83.0601 91.55 79.8101C89.77 76.5601 88.88 72.6801 88.88 68.1701C88.88 63.6601 89.77 59.7601 91.55 56.5101C93.33 53.2601 95.76 50.7901 98.83 49.1101C101.91 47.4301 105.38 46.5901 109.25 46.5901C113.12 46.5901 116.53 47.4301 119.61 49.1101C122.69 50.7901 125.11 53.2601 126.89 56.5101C128.67 59.7601 129.56 63.6501 129.56 68.1701C129.56 72.6901 128.67 76.5801 126.89 79.8301V79.8401ZM102.57 77.0301C104.12 79.0801 106.34 80.1201 109.24 80.1301C112.12 80.1101 114.34 79.0801 115.88 77.0301C117.43 74.9801 118.19 72.0301 118.17 68.1801C118.19 64.3101 117.43 61.3501 115.88 59.3001C114.33 57.2501 112.12 56.2201 109.24 56.2201C106.36 56.2201 104.11 57.2501 102.57 59.3001C101.02 61.3501 100.25 64.3101 100.25 68.1801C100.25 72.0501 101.02 74.9801 102.57 77.0301Z" fill="var(--primary-color)"/>
<path d="M134.95 47.1699H152.82C155.93 47.1699 158.67 47.7399 161.02 48.8799C163.37 50.0199 165.18 51.6599 166.46 53.7999C167.74 55.9399 168.37 58.4699 168.37 61.3899C168.37 64.3099 167.75 66.6999 166.5 68.7499C165.25 70.7899 163.48 72.3499 161.18 73.4399L169.77 89.1999H157.76L150.3 75.2099H145.98V89.1999H134.95V47.1899V47.1699ZM150.27 66.5599C154.66 66.5599 156.85 64.8399 156.83 61.3999C156.85 59.5799 156.29 58.2299 155.16 57.3499C154.03 56.4699 152.4 56.0199 150.27 55.9999H145.98V66.5599H150.27Z" fill="var(--primary-color)"/>
<path d="M198.31 57.4701C197.1 56.6401 195.58 56.2201 193.74 56.2201C191.81 56.2201 190.14 56.6901 188.75 57.6301C187.36 58.5701 186.29 59.9301 185.56 61.7101C184.82 63.4901 184.46 65.6301 184.46 68.1201C184.46 71.9301 185.25 74.8801 186.82 76.9701C188.4 79.0601 190.68 80.1101 193.68 80.1301C196.25 80.1101 198.22 79.5401 199.58 78.4001C200.94 77.2701 201.64 75.7201 201.68 73.7401H193.9V65.8501H212.35V71.6001C212.35 75.3301 211.55 78.5701 209.96 81.3101C208.36 84.0501 206.14 86.1401 203.3 87.5901C200.46 89.0401 197.21 89.7701 193.55 89.7701C189.51 89.7701 185.94 88.9001 182.84 87.1601C179.74 85.4201 177.34 82.9201 175.63 79.6701C173.92 76.4201 173.06 72.6101 173.06 68.2401C173.06 63.8701 173.96 59.9001 175.77 56.6301C177.58 53.3601 180.03 50.8701 183.13 49.1601C186.22 47.4501 189.68 46.5901 193.49 46.5901C196.74 46.5901 199.71 47.2001 202.4 48.4301C205.09 49.6601 207.26 51.3701 208.93 53.5501C210.59 55.7401 211.58 58.2101 211.89 60.9801H200.69C200.3 59.4701 199.5 58.3001 198.3 57.4701H198.31Z" fill="var(--primary-color)"/>
<path d="M217.88 47.1699H247.88V56.1099H228.9V63.7099H246.31V72.6499H228.9V80.2499H247.82V89.1899H217.88V47.1799V47.1699Z" fill="var(--primary-color)"/>
<path d="M0.119995 0.810059V22.9101V45.0001V67.0901H22.21V45.0001V22.9101V0.810059H0.119995Z" fill="var(--primary-color)"/>
<path d="M22.21 67.0901H0.119995V89.1801H22.21V67.0901Z" fill="var(--secondary-color)"/>
<path d="M49.91 0.810059H27.82V22.9001H49.91V0.810059Z" fill="var(--primary-color)"/>
<path d="M49.91 22.9102H27.82V45.0002H49.91V22.9102Z" fill="var(--secondary-color)"/>
<path d="M49.91 45H27.82V67.09H49.91V45Z" fill="var(--primary-color)"/>
<path d="M49.91 67.0901H27.82V89.1801H49.91V67.0901Z" fill="var(--secondary-color)"/>
</svg>
