<svg width="87" height="49" viewBox="0 0 87 49" fill="none" xmlns="http://www.w3.org/2000/svg">
<path d="M30.1603 32.7037L44.5455 20.618C45.6685 19.6733 46.5509 18.8533 47.1926 18.1581C47.8522 17.4629 48.3691 16.741 48.7434 15.9923C49.1178 15.2258 49.3049 14.3969 49.3049 13.5057C49.2871 12.0083 48.8058 10.8229 47.8611 9.94946C46.9163 9.07601 45.6864 8.63929 44.1712 8.63929C42.656 8.63929 41.435 9.10275 40.508 10.0297C39.5811 10.9388 39.1266 12.2044 39.1444 13.8265H29.4651C29.4651 11.1705 30.0623 8.86211 31.2566 6.9013C32.4687 4.92267 34.18 3.4075 36.3903 2.35579C38.6185 1.30409 41.2122 0.778234 44.1712 0.778234C47.2015 0.778234 49.8486 1.26844 52.1125 2.24884C54.3763 3.22924 56.1232 4.61963 57.3532 6.42001C58.5831 8.20256 59.1981 10.2792 59.1981 12.65C59.1981 14.2187 58.8772 15.7249 58.2355 17.1688C57.6116 18.6127 56.5064 20.217 54.92 21.9817C53.3513 23.7464 51.1231 25.8409 48.2354 28.2652L44.3316 31.6342V31.8481H59.6259V40.03H30.1603V32.7037Z" fill="#4693A5"/>
<path d="M64.03 11.1101C77.03 18.3401 85.83 32.2099 85.83 48.1399" stroke="#95D2E5" stroke-miterlimit="10"/>
<path d="M1.16998 48.1399C1.16998 32.2099 9.96999 18.3401 22.97 11.1101" stroke="#95D2E5" stroke-miterlimit="10"/>
</svg>
