<svg width="87" height="48" viewBox="0 0 87 48" fill="none" xmlns="http://www.w3.org/2000/svg">
<path d="M44.1872 40.4947C41.2104 40.4947 38.5366 39.9778 36.1658 38.9439C33.8128 37.91 31.9589 36.4662 30.6042 34.6123C29.2673 32.7585 28.5899 30.655 28.5721 28.3021H38.8396C38.8574 29.0686 39.0981 29.7549 39.5615 30.3609C40.0428 30.9492 40.6845 31.4126 41.4867 31.7513C42.3067 32.09 43.2247 32.2593 44.2407 32.2593C45.2568 32.2593 46.157 32.0811 46.9413 31.7246C47.7256 31.3681 48.3317 30.8689 48.7595 30.2272C49.2051 29.5855 49.4279 28.8547 49.4279 28.0347C49.4279 27.2147 49.1695 26.4928 48.6525 25.8689C48.1534 25.2272 47.4493 24.7281 46.5402 24.3715C45.6489 23.9972 44.6151 23.81 43.4386 23.81H39.5348V16.7511H43.4386C44.4903 16.7511 45.4261 16.5818 46.2461 16.2431C47.0839 15.8866 47.7345 15.3964 48.198 14.7725C48.6614 14.1486 48.8932 13.4356 48.8932 12.6334C48.8932 11.4391 48.4654 10.4676 47.6097 9.71897C46.7719 8.95247 45.6668 8.56922 44.2942 8.56922C43.3138 8.56922 42.4314 8.74747 41.6471 9.10399C40.8628 9.44267 40.2478 9.93287 39.8022 10.5746C39.3565 11.1985 39.1248 11.9026 39.107 12.6869H29.3742C29.3742 10.3696 30.016 8.30184 31.2994 6.48363C32.5828 4.66543 34.3476 3.2483 36.5936 2.23225C38.8574 1.21619 41.4243 0.708165 44.2942 0.708165C47.0928 0.708165 49.5884 1.19837 51.7809 2.17877C53.9735 3.14135 55.6758 4.47826 56.8879 6.18951C58.1179 7.88294 58.7329 9.79918 58.7329 11.9382C58.7329 13.3465 58.3942 14.6121 57.7168 15.7351C57.0573 16.8581 56.1303 17.7672 54.936 18.4624C53.7595 19.1398 52.4048 19.5676 50.8718 19.7458V20.0667C53.9022 20.4054 56.2106 21.359 57.797 22.9277C59.4013 24.4785 60.1946 26.466 60.1767 28.8903C60.1767 31.1185 59.4994 33.115 58.1446 34.8797C56.7899 36.6444 54.8915 38.0259 52.4494 39.0241C50.0251 40.0045 47.2711 40.4947 44.1872 40.4947Z" fill="#4693A5"/>
<path d="M66.73 11.74C78.24 19.31 85.83 32.3299 85.83 47.1299" stroke="#95D2E5" stroke-miterlimit="10"/>
<path d="M1.16998 47.1399C1.16998 32.2499 8.84999 19.1601 20.47 11.6101" stroke="#95D2E5" stroke-miterlimit="10"/>
</svg>
