<svg width="86" height="49" viewBox="0 0 86 49" fill="none" xmlns="http://www.w3.org/2000/svg">
<path d="M42.3581 39.4447C39.4526 39.4447 36.8501 38.9277 34.5506 37.8939C32.2511 36.8422 30.4507 35.3983 29.1494 33.5623C27.8482 31.7084 27.1886 29.605 27.1708 27.252H37.064C37.0818 28.1255 37.3313 28.9009 37.8126 29.5783C38.2939 30.2556 38.9356 30.7815 39.7378 31.1558C40.5399 31.5123 41.4134 31.6906 42.3581 31.6906C43.4455 31.6906 44.417 31.4588 45.2726 30.9954C46.1282 30.5141 46.7878 29.8456 47.2512 28.99C47.7325 28.1166 47.9732 27.1094 47.9732 25.9686C47.9732 24.8278 47.7414 23.8206 47.278 22.9472C46.8145 22.0737 46.155 21.3963 45.2993 20.915C44.4616 20.4338 43.499 20.1931 42.4116 20.1931C39.8091 20.1931 38.0265 21.2092 37.064 23.2413H28.0264L29.6842 0.192882H55.4064V8.32132H38.08L37.2779 17.038H37.4918C38.1335 15.8793 39.1941 14.9346 40.6736 14.2037C42.1531 13.4551 43.8377 13.0807 45.7272 13.0807C48.0267 13.0807 50.0944 13.6155 51.9304 14.685C53.7665 15.7546 55.2014 17.2519 56.2353 19.1771C57.287 21.0844 57.8129 23.2413 57.8129 25.6477C57.8129 28.3216 57.1711 30.7102 55.8877 32.8136C54.6221 34.8992 52.8128 36.5302 50.4598 37.7067C48.1247 38.8653 45.4241 39.4447 42.3581 39.4447Z" fill="#4693A5"/>
<path d="M60.28 9.43994C75.1 16.0299 85.43 30.8799 85.43 48.1399" stroke="#95D2E5" stroke-linecap="round" stroke-linejoin="round"/>
<path d="M0.77002 48.1399C0.77002 31.0299 10.92 16.2801 25.54 9.61011" stroke="#95D2E5" stroke-linecap="round" stroke-linejoin="round"/>
</svg>
