<svg width="333" height="224" viewBox="0 0 333 224" fill="none" xmlns="http://www.w3.org/2000/svg">
<path d="M326.85 99.26C326.7 99.32 326.56 99.3899 326.42 99.4699C325.47 98.15 324.33 97 323.07 96.04C323.15 95.9 323.22 95.76 323.29 95.61C324.14 93.61 323.21 91.2899 321.22 90.4399C319.22 89.5899 316.91 90.52 316.05 92.52C315.99 92.67 315.94 92.82 315.89 92.97C314.32 92.72 312.71 92.69 311.1 92.92C311.06 92.77 311.01 92.6099 310.95 92.4599C310.14 90.4399 307.85 89.46 305.83 90.27C303.81 91.08 302.83 93.38 303.64 95.39C303.7 95.54 303.77 95.6799 303.85 95.8199C302.53 96.7699 301.38 97.91 300.43 99.17C300.29 99.09 300.15 99.0199 300 98.9499C298 98.0999 295.69 99.03 294.83 101.03C293.98 103.03 294.91 105.35 296.9 106.2C297.05 106.26 297.2 106.31 297.35 106.36C297.1 107.93 297.07 109.54 297.3 111.16C297.15 111.2 297 111.25 296.84 111.31C294.82 112.12 293.84 114.42 294.65 116.43C295.46 118.45 297.75 119.43 299.77 118.62C299.92 118.56 300.06 118.49 300.2 118.41C301.15 119.73 302.29 120.88 303.55 121.84C303.47 121.98 303.4 122.12 303.33 122.27C302.48 124.27 303.41 126.59 305.4 127.44C307.4 128.29 309.71 127.36 310.57 125.36C310.63 125.21 310.68 125.06 310.73 124.91C312.3 125.16 313.91 125.19 315.52 124.96C315.56 125.11 315.61 125.27 315.67 125.42C316.48 127.44 318.77 128.42 320.79 127.61C322.81 126.8 323.79 124.5 322.98 122.49C322.92 122.34 322.85 122.2 322.77 122.06C324.09 121.11 325.24 119.97 326.19 118.71C326.33 118.79 326.47 118.86 326.62 118.93C328.62 119.78 330.93 118.85 331.79 116.85C332.64 114.85 331.71 112.53 329.72 111.68C329.57 111.62 329.42 111.57 329.27 111.52C329.52 109.95 329.55 108.34 329.32 106.72C329.47 106.68 329.62 106.63 329.78 106.57C331.8 105.76 332.78 103.46 331.97 101.45C331.16 99.4299 328.87 98.45 326.85 99.26ZM315.7 114.91C312.41 116.23 308.67 114.64 307.35 111.34C306.03 108.05 307.62 104.31 310.91 102.98C314.2 101.66 317.94 103.25 319.26 106.55C320.58 109.85 318.99 113.58 315.7 114.91Z" fill="white"/>
<path d="M319.34 128.17C318.78 128.17 318.22 128.06 317.69 127.83C316.66 127.39 315.86 126.57 315.44 125.53C315.41 125.45 315.38 125.36 315.35 125.27C313.88 125.45 312.4 125.44 310.94 125.22C310.91 125.31 310.88 125.4 310.84 125.48C310.4 126.51 309.58 127.31 308.54 127.73C307.5 128.15 306.35 128.14 305.32 127.7C303.19 126.79 302.19 124.31 303.1 122.18C303.13 122.1 303.17 122.02 303.22 121.93C302.05 121.02 301.02 119.96 300.13 118.77C300.04 118.81 299.96 118.85 299.88 118.88C298.84 119.3 297.69 119.29 296.66 118.85C295.63 118.41 294.83 117.59 294.41 116.55C293.55 114.4 294.59 111.94 296.74 111.08C296.82 111.05 296.91 111.02 297 110.99C296.82 109.52 296.83 108.04 297.05 106.57C296.96 106.54 296.87 106.51 296.79 106.47C294.66 105.56 293.66 103.08 294.57 100.95C295.01 99.9199 295.83 99.1199 296.87 98.6999C297.91 98.2799 299.06 98.29 300.09 98.73C300.17 98.76 300.25 98.8 300.34 98.85C301.25 97.68 302.31 96.64 303.49 95.76C303.45 95.67 303.41 95.59 303.38 95.51C302.52 93.36 303.56 90.9 305.71 90.04C306.75 89.62 307.9 89.6299 308.93 90.0699C309.96 90.5099 310.76 91.33 311.18 92.37C311.21 92.45 311.24 92.54 311.27 92.63C312.74 92.45 314.22 92.46 315.68 92.68C315.71 92.59 315.74 92.5 315.78 92.42C316.22 91.39 317.04 90.59 318.08 90.17C319.12 89.75 320.27 89.7599 321.3 90.1999C323.43 91.1099 324.43 93.59 323.52 95.72C323.49 95.8 323.45 95.88 323.4 95.97C324.57 96.88 325.6 97.94 326.49 99.13C326.58 99.09 326.66 99.05 326.74 99.02C327.78 98.6 328.93 98.61 329.96 99.05C330.99 99.49 331.79 100.31 332.21 101.35C333.07 103.5 332.03 105.96 329.88 106.82C329.8 106.85 329.71 106.88 329.62 106.91C329.8 108.38 329.79 109.86 329.57 111.33C329.66 111.36 329.75 111.39 329.83 111.43C331.96 112.34 332.96 114.82 332.05 116.95C331.61 117.98 330.79 118.78 329.75 119.2C328.71 119.62 327.56 119.61 326.53 119.17C326.45 119.14 326.37 119.1 326.28 119.05C325.37 120.22 324.31 121.26 323.13 122.14C323.17 122.23 323.21 122.31 323.24 122.39C324.1 124.54 323.06 127 320.9 127.86C320.39 128.06 319.86 128.17 319.33 128.17H319.34ZM315.53 124.71C315.65 124.71 315.76 124.79 315.79 124.91C315.83 125.07 315.88 125.21 315.93 125.33C316.3 126.24 316.99 126.95 317.89 127.34C318.79 127.73 319.79 127.74 320.7 127.37C322.58 126.62 323.49 124.47 322.74 122.59C322.69 122.46 322.63 122.34 322.55 122.19C322.49 122.07 322.52 121.92 322.63 121.84C323.91 120.91 325.05 119.8 326 118.54C326.08 118.43 326.23 118.4 326.35 118.47C326.49 118.55 326.62 118.62 326.75 118.67C327.65 119.06 328.65 119.07 329.56 118.7C330.47 118.33 331.18 117.64 331.57 116.73C332.36 114.87 331.5 112.71 329.64 111.91C329.52 111.86 329.38 111.81 329.22 111.76C329.09 111.72 329.01 111.59 329.03 111.46C329.28 109.9 329.3 108.31 329.08 106.74C329.06 106.61 329.15 106.48 329.28 106.44C329.44 106.4 329.58 106.35 329.7 106.3C331.58 105.55 332.49 103.4 331.74 101.52C331.37 100.61 330.68 99.9 329.78 99.51C328.88 99.12 327.88 99.11 326.97 99.48C326.84 99.53 326.71 99.59 326.57 99.67C326.45 99.74 326.3 99.6999 326.22 99.5899C325.29 98.3099 324.19 97.17 322.92 96.22C322.81 96.14 322.78 95.99 322.85 95.87C322.93 95.73 323 95.6 323.05 95.47C323.84 93.61 322.98 91.45 321.12 90.65C320.22 90.26 319.22 90.25 318.31 90.62C317.4 90.99 316.69 91.6799 316.3 92.5899C316.25 92.7099 316.2 92.85 316.15 93.01C316.11 93.14 315.98 93.2199 315.85 93.1999C314.29 92.9499 312.7 92.93 311.14 93.15C311.01 93.17 310.88 93.0799 310.84 92.9499C310.8 92.7899 310.75 92.65 310.7 92.53C310.33 91.62 309.64 90.91 308.74 90.52C307.84 90.14 306.84 90.12 305.93 90.49C304.05 91.24 303.14 93.39 303.89 95.27C303.94 95.39 304 95.53 304.08 95.67C304.14 95.79 304.11 95.94 304 96.02C302.72 96.95 301.58 98.0599 300.63 99.3199C300.55 99.4299 300.4 99.46 300.28 99.39C300.14 99.31 300.01 99.2399 299.88 99.1899C298.98 98.7999 297.98 98.79 297.07 99.16C296.16 99.53 295.45 100.22 295.06 101.13C294.27 102.99 295.13 105.15 296.99 105.95C297.11 106 297.25 106.05 297.41 106.1C297.54 106.14 297.62 106.27 297.6 106.4C297.35 107.96 297.33 109.55 297.55 111.12C297.57 111.25 297.48 111.38 297.35 111.42C297.19 111.46 297.05 111.51 296.93 111.56C295.05 112.31 294.14 114.46 294.89 116.34C295.26 117.25 295.95 117.96 296.85 118.35C297.75 118.74 298.75 118.75 299.66 118.38C299.79 118.33 299.92 118.27 300.06 118.19C300.18 118.12 300.33 118.16 300.41 118.27C301.34 119.55 302.44 120.69 303.71 121.64C303.82 121.72 303.85 121.87 303.78 121.99C303.7 122.13 303.63 122.26 303.58 122.39C302.79 124.25 303.65 126.41 305.51 127.21C306.41 127.6 307.41 127.61 308.32 127.24C309.23 126.87 309.94 126.18 310.33 125.27C310.38 125.15 310.43 125.01 310.48 124.85C310.52 124.72 310.65 124.64 310.78 124.66C312.34 124.91 313.92 124.93 315.49 124.71C315.5 124.71 315.52 124.71 315.53 124.71ZM313.31 115.64C312.42 115.64 311.53 115.46 310.69 115.1C309.05 114.4 307.78 113.1 307.11 111.44C305.74 108.02 307.4 104.11 310.82 102.73C312.48 102.06 314.3 102.08 315.94 102.79C317.58 103.49 318.85 104.79 319.52 106.45C320.89 109.87 319.23 113.78 315.81 115.16C315 115.48 314.16 115.65 313.32 115.65L313.31 115.64ZM313.31 102.79C312.53 102.79 311.76 102.94 311.02 103.24C307.87 104.51 306.34 108.1 307.6 111.25C308.21 112.78 309.38 113.97 310.89 114.62C312.4 115.27 314.07 115.28 315.6 114.67C318.75 113.4 320.28 109.81 319.02 106.66C318.41 105.13 317.24 103.94 315.73 103.29C314.95 102.96 314.14 102.79 313.32 102.79H313.31Z" fill="black"/>
<path d="M74.66 13.4301H291.35C295.45 13.4301 298.77 16.75 298.77 20.85V168.67H67.24V20.85C67.24 16.75 70.56 13.4301 74.66 13.4301Z" fill="white"/>
<path d="M298.77 168.94H67.24C67.09 168.94 66.97 168.82 66.97 168.67V20.85C66.97 16.61 70.42 13.16 74.66 13.16H291.35C295.59 13.16 299.04 16.61 299.04 20.85V168.67C299.04 168.82 298.92 168.94 298.77 168.94ZM67.51 168.4H298.5V20.85C298.5 16.91 295.29 13.7 291.35 13.7H74.66C70.72 13.7 67.51 16.91 67.51 20.85V168.4Z" fill="black"/>
<path d="M291.61 154.96H215.19C215.04 154.96 214.92 154.84 214.92 154.69C214.92 154.54 215.04 154.42 215.19 154.42H291.35V27.66H74.68V125.12C74.68 125.27 74.56 125.39 74.41 125.39C74.26 125.39 74.14 125.27 74.14 125.12V27.39C74.14 27.24 74.26 27.12 74.41 27.12H291.62C291.77 27.12 291.89 27.24 291.89 27.39V154.69C291.89 154.84 291.77 154.96 291.62 154.96H291.61Z" fill="black"/>
<path d="M302.8 187.85H63.57C52.62 187.85 42.56 183.16 37.36 175.64L34.86 172.02C33.11 169.48 34.92 166.02 38.01 166.02H328C330.95 166.02 332.79 169.21 331.32 171.76L329.95 174.14C325.15 182.48 314.52 187.85 302.79 187.85H302.8Z" fill="white"/>
<path d="M302.8 188.11H63.57C52.52 188.11 42.39 183.39 37.14 175.79L34.64 172.17C33.76 170.89 33.66 169.31 34.38 167.94C35.1 166.57 36.46 165.75 38.01 165.75H328C329.48 165.75 330.81 166.51 331.55 167.8C332.29 169.08 332.29 170.61 331.55 171.89L330.18 174.27C325.34 182.68 314.59 188.12 302.79 188.12L302.8 188.11ZM38.01 166.28C36.66 166.28 35.48 166.99 34.86 168.19C34.23 169.38 34.32 170.76 35.08 171.87L37.58 175.49C42.73 182.95 52.69 187.58 63.56 187.58H302.79C314.4 187.58 324.97 182.25 329.71 174L331.08 171.62C331.72 170.51 331.72 169.17 331.08 168.06C330.44 166.95 329.28 166.28 328 166.28H38.01Z" fill="black"/>
<path d="M277.66 137.34H212.4V96.63L277.66 137.34Z" fill="white"/>
<path d="M277.66 137.61H212.4C212.25 137.61 212.13 137.49 212.13 137.34V96.63C212.13 96.48 212.25 96.36 212.4 96.36C212.55 96.36 212.67 96.48 212.67 96.63V137.07H277.66C277.81 137.07 277.93 137.19 277.93 137.34C277.93 137.49 277.81 137.61 277.66 137.61Z" fill="black"/>
<path d="M273.56 109.73H217.69V132.69H273.56V109.73Z" fill="#E2EAFF"/>
<path d="M222.49 126.76C222.42 126.76 222.35 126.73 222.3 126.68C222.2 126.57 222.2 126.4 222.3 126.3L250.53 99.22C250.64 99.12 250.8 99.12 250.91 99.22L258.81 107.13L277.02 88.8901C277.12 88.7801 277.29 88.7901 277.4 88.8901C277.5 88.9901 277.5 89.1601 277.4 89.2701L259 107.7C258.9 107.8 258.72 107.8 258.62 107.7L250.72 99.7901L222.68 126.69C222.63 126.74 222.56 126.76 222.49 126.76Z" fill="black"/>
<path d="M276.17 92.52L275.68 92.3L277.16 89.11L273.98 90.6L273.76 90.11L278.27 88L276.17 92.52Z" fill="black"/>
<path d="M260.12 63.97C254.63 68.05 247.76 70.34 240.84 70.45C240.24 70.45 239.88 69.81 240.22 69.34L241.29 67.86C233.97 69.44 226.45 70.11 218.95 69.86C217.68 69.82 216.24 69.67 215.66 68.42C215.48 68.03 215.43 67.59 215.47 67.17C215.59 66.06 216.27 65.1699 216.95 64.3199C221.44 58.7099 226.8 53.8099 232.13 48.9399L228.48 49.34C228 49.39 227.71 48.85 228.03 48.5C232.03 44.06 238.29 39.9899 243.72 37.3199L260.12 63.99V63.97Z" fill="#95D2E5"/>
<path d="M236.29 50.65C236.2 50.65 236.12 50.61 236.07 50.53C235.99 50.41 236.02 50.24 236.14 50.16L242.52 45.89C242.64 45.81 242.81 45.8399 242.89 45.9599C242.97 46.0799 242.94 46.2499 242.82 46.3299L236.44 50.6C236.44 50.6 236.34 50.65 236.29 50.65Z" fill="black"/>
<path d="M224.39 65.61C224.31 65.61 224.23 65.5701 224.18 65.5101C224.09 65.3901 224.11 65.2201 224.23 65.1301C230.73 60.1501 237.58 55.4901 244.58 51.2701C244.71 51.1901 244.87 51.23 244.95 51.36C245.03 51.49 244.99 51.65 244.86 51.73C237.87 55.94 231.04 60.5901 224.56 65.5601C224.51 65.6001 224.45 65.6201 224.4 65.6201L224.39 65.61Z" fill="black"/>
<path d="M243.11 60.59C243.02 60.59 242.93 60.54 242.88 60.46C242.81 60.33 242.85 60.17 242.98 60.09L248.54 56.84C248.67 56.77 248.83 56.81 248.91 56.94C248.98 57.07 248.94 57.2301 248.81 57.3101L243.25 60.5601C243.25 60.5601 243.16 60.6 243.11 60.6V60.59Z" fill="black"/>
<path d="M260.12 61.36L261.63 73.42C261.75 74.35 262.81 74.83 263.57 74.28C268.78 70.54 284.22 58.32 283.46 45.33L260.11 61.36H260.12Z" fill="white"/>
<path d="M262.86 74.78C262.66 74.78 262.45 74.74 262.26 74.65C261.77 74.43 261.43 73.99 261.37 73.45L259.86 61.39C259.85 61.29 259.89 61.19 259.97 61.14L283.32 45.11C283.4 45.06 283.5 45.05 283.59 45.09C283.68 45.13 283.73 45.22 283.74 45.32C284.51 58.52 268.62 71 263.74 74.5C263.48 74.69 263.18 74.78 262.87 74.78H262.86ZM260.41 61.48L261.9 73.38C261.94 73.73 262.16 74.0201 262.48 74.1601C262.79 74.3001 263.15 74.2601 263.42 74.0601C268.19 70.6301 283.56 58.57 283.22 45.82L260.41 61.49V61.48Z" fill="black"/>
<path d="M245.61 38.5L235.38 32.0601C234.59 31.5601 234.61 30.39 235.42 29.92C240.97 26.72 258.45 17.72 269.84 23.85L245.61 38.5Z" fill="white"/>
<path d="M245.61 38.77C245.61 38.77 245.51 38.76 245.47 38.73L235.24 32.2901C234.79 32.0001 234.52 31.51 234.53 30.98C234.54 30.44 234.82 29.96 235.29 29.7C240.5 26.7 258.39 17.39 269.97 23.63C270.05 23.68 270.11 23.76 270.11 23.86C270.11 23.96 270.06 24.05 269.98 24.1L245.75 38.75C245.75 38.75 245.66 38.7901 245.61 38.7901V38.77ZM260.72 22.0401C250.62 22.0401 239.47 27.9 235.55 30.15C235.25 30.32 235.07 30.63 235.06 30.98C235.06 31.33 235.22 31.65 235.52 31.83L245.61 38.1801L269.29 23.87C266.68 22.57 263.75 22.0401 260.72 22.0401Z" fill="black"/>
<path d="M259.84 64.2099C260.74 64.2399 261.65 64.01 262.44 63.51C274.26 56.06 323.15 24.06 326.34 2.56C305.63 -3.55 256.32 27.7799 244.65 35.4799C243.08 36.5199 242.29 38.41 242.66 40.27C244.6 49.85 249.48 57.5399 257.3 63.3299C258.06 63.8899 258.95 64.1899 259.84 64.2199V64.2099Z" fill="white"/>
<path d="M314.15 22.95C320.69 15.84 325.42 8.76008 326.34 2.55008C320.31 0.760077 311.85 2.16001 302.6 5.23001C302.6 5.23001 303.38 10.36 306.84 15.45C310.57 20.94 314.16 22.96 314.16 22.96L314.15 22.95Z" fill="#95D2E5"/>
<path d="M260.01 64.48C260.01 64.48 259.97 64.48 259.95 64.48C259.8 64.48 259.68 64.36 259.69 64.21C259.69 64.06 259.81 63.95 259.96 63.95C259.98 63.95 260 63.95 260.01 63.95C260.82 63.95 261.61 63.7201 262.3 63.2901C270.23 58.2901 297.37 40.6201 313.57 23.0601C313.67 22.9501 313.84 22.9401 313.95 23.0501C314.06 23.1501 314.07 23.3201 313.96 23.4301C297.71 41.0401 270.52 58.74 262.58 63.75C261.8 64.24 260.91 64.5 260 64.5L260.01 64.48Z" fill="black"/>
<path d="M242.95 37.76C242.95 37.76 242.88 37.7599 242.84 37.7399C242.7 37.6799 242.64 37.52 242.7 37.39C243.08 36.51 243.7 35.7799 244.49 35.2499C252.3 30.0999 279.55 12.6999 302.12 5.18989C302.26 5.13989 302.41 5.21993 302.46 5.35993C302.51 5.49993 302.43 5.6499 302.29 5.6999C279.79 13.1899 252.59 30.5599 244.79 35.6999C244.08 36.1699 243.53 36.8199 243.19 37.5999C243.15 37.6999 243.05 37.76 242.94 37.76H242.95Z" fill="black"/>
<path d="M285.48 40.36C280.79 43.38 274.56 42.0001 271.56 37.2801C268.56 32.5601 269.93 26.27 274.62 23.25C279.31 20.23 285.54 21.61 288.54 26.33C291.54 31.05 290.17 37.34 285.48 40.36Z" fill="white"/>
<path d="M280.07 42.2399C279.33 42.2399 278.59 42.16 277.85 42C275.14 41.41 272.83 39.78 271.34 37.43C268.27 32.59 269.68 26.13 274.48 23.03C276.8 21.53 279.56 21.03 282.26 21.63C284.97 22.22 287.28 23.8499 288.77 26.1999C291.84 31.0399 290.43 37.4999 285.63 40.5999C283.95 41.6899 282.03 42.25 280.07 42.25V42.2399ZM280.03 21.92C278.18 21.92 276.36 22.4499 274.76 23.4799C270.2 26.4199 268.87 32.55 271.78 37.14C273.2 39.37 275.39 40.9099 277.95 41.4699C280.5 42.0299 283.12 41.56 285.32 40.14C289.88 37.2 291.21 31.0699 288.3 26.4799C286.88 24.2499 284.69 22.71 282.13 22.15C281.43 22 280.72 21.92 280.02 21.92H280.03Z" fill="black"/>
<path d="M283.8 37.7199C280.56 39.8099 276.25 38.8599 274.18 35.5899C272.11 32.3199 273.05 27.98 276.29 25.9C279.53 23.81 283.84 24.76 285.91 28.03C287.98 31.3 287.04 35.6399 283.8 37.7199Z" fill="#95D2E5"/>
<path d="M266.41 59.4001C266.35 59.4001 266.3 59.38 266.25 59.34C258.07 53.07 252.1 43.6701 249.87 33.5501C249.84 33.4101 249.93 33.26 250.07 33.23C250.21 33.2 250.36 33.2901 250.39 33.4301C252.59 43.4201 258.49 52.7101 266.57 58.9101C266.69 59.0001 266.71 59.1701 266.62 59.2901C266.57 59.3601 266.49 59.39 266.41 59.39V59.4001Z" fill="black"/>
<path d="M199.64 88.6201C199.55 88.6201 199.46 88.57 199.41 88.49C199.33 88.36 199.37 88.2001 199.5 88.1201L217.45 77.0601C217.58 76.9801 217.74 77.0201 217.82 77.1501C217.9 77.2801 217.86 77.4401 217.73 77.5201L199.78 88.58C199.78 88.58 199.69 88.6201 199.64 88.6201Z" fill="black"/>
<path d="M199.58 73.5201C199.49 73.5201 199.4 73.47 199.35 73.38C199.28 73.25 199.32 73.09 199.45 73.01L210.52 66.74C210.65 66.67 210.81 66.71 210.89 66.84C210.96 66.97 210.92 67.13 210.79 67.21L199.72 73.48C199.72 73.48 199.63 73.51 199.59 73.51L199.58 73.5201Z" fill="black"/>
<path d="M206.66 59.77C206.57 59.77 206.48 59.72 206.43 59.64C206.36 59.51 206.4 59.35 206.53 59.27L218.01 52.53C218.14 52.45 218.3 52.5 218.38 52.63C218.45 52.76 218.41 52.92 218.28 53L206.8 59.7399C206.8 59.7399 206.71 59.78 206.66 59.78V59.77Z" fill="black"/>
<path d="M220.11 88.73C220.02 88.73 219.93 88.68 219.88 88.6C219.8 88.47 219.84 88.31 219.97 88.23L234.66 79.1801C234.79 79.1001 234.95 79.1401 235.03 79.2701C235.11 79.4001 235.07 79.5601 234.94 79.6401L220.25 88.69C220.25 88.69 220.16 88.73 220.11 88.73Z" fill="black"/>
<path d="M126.39 94.97H113.54C113.39 94.97 113.27 94.85 113.27 94.7C113.27 94.55 113.39 94.4301 113.54 94.4301H126.12V78.47C126.12 78.32 126.24 78.2 126.39 78.2C126.54 78.2 126.66 78.32 126.66 78.47V94.7C126.66 94.85 126.54 94.97 126.39 94.97Z" fill="black"/>
<path d="M108.902 97.9477C110.675 97.9301 112.098 96.4786 112.08 94.7059C112.063 92.9331 110.611 91.5104 108.839 91.528C107.066 91.5456 105.643 92.997 105.661 94.7697C105.678 96.5425 107.13 97.9654 108.902 97.9477Z" fill="#E2EAFF"/>
<path d="M157.86 223.03L168.74 173.5C169.68 169.64 174.54 167.05 178.47 167.62L209.66 172.1C209.66 172.1 212.84 183.27 214.1 186.92C218.48 199.65 218.86 222.9 218.86 222.9L191.27 223.05L157.87 223.02L157.86 223.03Z" fill="white"/>
<path d="M218.85 223.17C218.7 223.17 218.58 223.05 218.58 222.91C217.94 188.44 208.82 174.57 208.73 174.43C208.65 174.31 208.68 174.14 208.8 174.06C208.92 173.98 209.09 174.01 209.17 174.13C209.26 174.27 218.47 188.24 219.11 222.9C219.11 223.05 218.99 223.17 218.85 223.17Z" fill="black"/>
<path d="M157.89 223.17C157.89 223.17 157.85 223.17 157.83 223.17C157.69 223.14 157.59 223 157.62 222.85L166.36 182.25C166.39 182.1 166.53 182.01 166.68 182.04C166.82 182.07 166.92 182.21 166.89 182.36L158.15 222.96C158.12 223.09 158.01 223.17 157.89 223.17Z" fill="black"/>
<path d="M181.89 100.62L190.21 114.06L179.81 118.35L171.51 102.68L181.89 100.62Z" fill="white"/>
<path d="M188.14 110.98C188.05 110.98 187.96 110.93 187.91 110.85L182.5 102.12C182.42 101.99 182.46 101.83 182.59 101.75C182.72 101.67 182.88 101.71 182.96 101.84L188.37 110.57C188.45 110.7 188.41 110.86 188.28 110.94C188.24 110.97 188.19 110.98 188.14 110.98Z" fill="black"/>
<path d="M178.52 115.71C178.43 115.71 178.33 115.66 178.29 115.57L172.81 105.68C172.74 105.55 172.79 105.39 172.91 105.32C173.04 105.25 173.2 105.3 173.27 105.42L178.75 115.31C178.82 115.44 178.77 115.6 178.65 115.67C178.61 115.69 178.56 115.7 178.52 115.7V115.71Z" fill="black"/>
<path d="M168.68 82.14C164.45 84.4 163.23 87.16 163.24 90.62C163.25 93.45 165.38 94.19 168.3 93.08C170.94 92.08 173.32 96.43 176.08 95.85C175.91 97.49 177.29 98.83 178.58 99.87C179.86 100.9 181.27 101.93 182.9 102.02C185.47 102.16 187.63 99.8001 188.18 97.2801C188.73 94.7601 188.86 90.35 186.84 88.34C190.01 89.44 192.07 87.8401 193.46 86.3101C196.41 83.0401 193.74 78.56 190.62 75.46C187.5 72.35 182.2 71.13 178.99 74.13C176.11 76.83 179.46 81.7801 179.46 81.7801C179.46 81.7801 178.16 80.8601 175.09 80.5301C173.14 80.3201 170.81 81 168.68 82.13V82.14Z" fill="black"/>
<path d="M180.1 97.4901C180.1 97.4901 180.83 96.3501 182.08 96.7501C183.3 97.1501 183.99 98.6301 183.71 99.8901C183.43 101.15 182.25 102.12 180.97 102.24C180.25 102.31 179.57 102.3 178.88 101.81C177.87 103.09 176.59 104.19 175.08 104.8C173.57 105.41 171.82 105.51 170.31 104.89C167.79 103.85 166.38 101.01 166.25 98.2801C166.12 95.5501 166.81 93.4901 167.72 90.9201C167.72 90.9201 169.21 87.92 174.03 89.4901C175.09 89.84 176.18 89.9601 176.38 91.0601C176.88 93.8601 178.31 97.32 180.1 97.48V97.4901Z" fill="white"/>
<path d="M172.52 105.58C171.71 105.58 170.93 105.43 170.21 105.14C167.8 104.15 166.14 101.46 165.99 98.3C165.85 95.42 166.64 93.1999 167.47 90.8399C167.47 90.8299 167.47 90.82 167.48 90.81C167.5 90.78 169.13 87.62 174.11 89.25C174.28 89.3 174.44 89.35 174.61 89.4C175.51 89.66 176.45 89.94 176.64 91.03C177.15 93.88 178.52 96.8999 179.98 97.2099C180.34 96.7599 181.14 96.17 182.16 96.51C183.47 96.94 184.3 98.52 183.97 99.97C183.67 101.32 182.42 102.39 180.99 102.53C180.37 102.59 179.66 102.62 178.93 102.19C177.84 103.52 176.55 104.51 175.17 105.07C174.3 105.42 173.39 105.6 172.51 105.6L172.52 105.58ZM167.97 91.03C167.01 93.73 166.4 95.69 166.52 98.27C166.64 100.69 167.89 103.6 170.41 104.64C171.78 105.2 173.44 105.17 174.97 104.55C176.32 104 177.6 103 178.66 101.65C178.75 101.54 178.91 101.51 179.03 101.6C179.61 102.01 180.19 102.05 180.94 101.98C182.14 101.86 183.19 100.96 183.44 99.8299C183.7 98.6599 183.02 97.34 181.98 97C180.95 96.66 180.32 97.62 180.31 97.63C180.26 97.71 180.16 97.76 180.06 97.75C177.99 97.57 176.56 93.68 176.1 91.11C175.97 90.38 175.39 90.18 174.44 89.9C174.27 89.85 174.1 89.8 173.93 89.74C169.54 88.31 168.06 90.82 167.95 91.02L167.97 91.03Z" fill="black"/>
<path d="M179.78 100.54C179.72 100.54 179.66 100.52 179.61 100.48C179.5 100.39 179.48 100.22 179.57 100.1C180.1 99.45 180.88 99.01 181.71 98.88C181.86 98.86 181.99 98.96 182.02 99.1C182.04 99.25 181.94 99.38 181.8 99.41C181.1 99.52 180.44 99.8899 180 100.44C179.95 100.5 179.87 100.54 179.79 100.54H179.78Z" fill="black"/>
<path d="M106.61 172.08L107.54 171.46C111.05 169.15 115.08 167.77 119.26 167.45L141.91 165.72L141.93 150.02L111.16 152.03C109.03 152.17 106.92 153.03 104.9 153.71L102.37 154.56L96.8 163.75L106.6 172.08H106.61Z" fill="white"/>
<path d="M106.61 172.35C106.55 172.35 106.49 172.33 106.44 172.29L96.64 163.96C96.54 163.87 96.52 163.73 96.58 163.62L102.15 154.43C102.18 154.38 102.23 154.33 102.29 154.31L104.82 153.46C105.17 153.34 105.51 153.22 105.86 153.1C107.57 152.5 109.34 151.89 111.15 151.77L141.92 149.76C142 149.76 142.07 149.78 142.12 149.83C142.17 149.88 142.2 149.95 142.2 150.03L142.18 165.73C142.18 165.87 142.07 165.99 141.93 166L119.28 167.73C115.15 168.04 111.14 169.42 107.69 171.69L106.76 172.31C106.76 172.31 106.66 172.35 106.61 172.35ZM97.16 163.69L106.63 171.74L107.4 171.24C110.93 168.91 115.03 167.51 119.25 167.19L141.66 165.48L141.68 150.31L111.2 152.3C109.47 152.41 107.73 153.02 106.05 153.6C105.7 153.72 105.35 153.84 105 153.96L102.56 154.78L97.16 163.69Z" fill="black"/>
<path d="M186.27 107.69C175.01 107.69 167.86 122.9 164.7 131.97L160.29 145.48L121.5 150.21L123.72 168.85L158.01 167.66C159.79 167.48 161.52 167.07 163.15 166.46L165.87 183.68C173.04 176.23 211.78 179.41 211.78 179.41C211.78 179.41 204.61 107.69 186.27 107.69Z" fill="#95D2E5"/>
<path d="M162.93 165.39C162.8 165.39 162.69 165.3 162.67 165.17C162.64 165.02 159.95 149.69 164.24 132.95C164.28 132.81 164.42 132.72 164.57 132.76C164.71 132.8 164.8 132.94 164.76 133.09C160.5 149.72 163.17 164.93 163.2 165.08C163.23 165.23 163.13 165.37 162.98 165.39C162.96 165.39 162.95 165.39 162.93 165.39Z" fill="black"/>
<path d="M143.68 151.8L162.99 153.07C164.09 153.14 164.93 152.1 164.64 151.04L158.19 127.83C158.01 127.17 157.43 126.7 156.75 126.66L137.44 125.39C136.34 125.32 135.5 126.36 135.79 127.42L142.24 150.63C142.42 151.29 143 151.76 143.68 151.8Z" fill="black"/>
<path d="M147.25 130.31C146.86 130.65 146.82 131.25 147.16 131.65C147.5 132.04 148.1 132.08 148.49 131.74C148.88 131.4 148.92 130.8 148.58 130.4C148.24 130.01 147.64 129.97 147.25 130.31Z" fill="#5479F7"/>
<path d="M148.83 134.11C148.83 134.11 147.2 133.64 147.97 132.05C148.66 130.62 157.43 127.65 171.59 136.22C173.04 137.09 174.34 137.9 175.51 138.63C174.17 142.32 171.36 149.56 166.62 154.01C163.44 149.86 159.74 145.76 155.34 144.82C147.57 143.16 154.33 141.94 154.33 141.94C154.33 141.94 148.47 141.49 148.56 140.14C148.68 138.34 153.42 138.51 155.43 138.66C155.97 138.71 156.31 138.74 156.31 138.74C156.31 138.74 155.97 138.7 155.43 138.66C153.21 138.44 147.52 137.73 147.08 136.32C146.52 134.56 148.83 134.11 148.83 134.11Z" fill="white"/>
<path d="M157.43 135.2C157.43 135.2 157.39 135.2 157.36 135.2C154.54 134.48 151.43 134.38 149.32 134.43C149.18 134.43 149.05 134.32 149.05 134.17C149.05 134.02 149.16 133.9 149.31 133.9C151.46 133.86 154.61 133.96 157.5 134.69C157.64 134.73 157.73 134.87 157.69 135.02C157.66 135.14 157.55 135.22 157.43 135.22V135.2Z" fill="black"/>
<path d="M186.13 146.26L178.52 110.5C178.52 110.5 182.05 106.93 185.55 107.85C187.8 108.44 193.39 108.36 203.18 129.17C214.14 152.49 216.69 166.49 207.93 172.76C196.5 180.94 178.76 167.97 173.43 162.62C171.12 160.3 168.7 156.83 166.26 153.65C171 149.2 173.94 142.18 175.28 138.49C185.08 144.63 186.13 146.26 186.13 146.26Z" fill="#95D2E5"/>
<path d="M200.16 175.35C190.54 175.35 179.27 167.42 174.25 162.38C173.74 161.86 173.17 161.31 172.57 160.72C170.42 158.63 167.99 156.25 166.08 153.77C165.99 153.65 166.01 153.48 166.13 153.39C166.25 153.3 166.42 153.32 166.51 153.44C168.39 155.89 170.81 158.25 172.94 160.33C173.54 160.92 174.11 161.47 174.63 161.99C178.72 166.09 196.24 179.97 207.31 172.84C208.8 171.88 209.3 171.32 210.27 170.14C210.36 170.03 210.53 170.01 210.65 170.1C210.76 170.19 210.78 170.36 210.69 170.48C209.71 171.67 209.17 172.29 207.61 173.29C205.37 174.73 202.83 175.34 200.17 175.34L200.16 175.35Z" fill="black"/>
<path d="M193.55 152.6C193.49 152.6 193.43 152.58 193.38 152.54L193.25 152.43C185.9 146.4 179.88 141.83 175.36 138.85C175.24 138.77 175.2 138.6 175.28 138.48C175.36 138.36 175.53 138.32 175.65 138.4C180.18 141.39 186.21 145.97 193.58 152.01L193.71 152.12C193.82 152.21 193.84 152.38 193.75 152.5C193.7 152.56 193.62 152.6 193.54 152.6H193.55Z" fill="black"/>
<path d="M97.54 123.88C92.3 122.54 89.53 120.05 88.07 117.89C88.62 116.12 89.18 114.35 89.78 112.61C92.12 105.89 95.68 99.0701 101.92 95.6801C103.03 95.0801 104.28 94.58 105.53 94.73C106.79 94.88 108.02 95.86 108.07 97.13C108.18 99.96 103.26 100.5 102.73 103.28C104.46 101.8 107.61 102.81 108.16 105.02C109.89 105.24 111.15 107.23 110.61 108.88C111.67 109.82 112.06 111.44 111.57 112.76C111.07 114.09 109.71 115.03 108.29 115.04C108.1 117.68 107.8 120.32 107.39 122.94C105.11 124.02 101.66 124.93 97.54 123.87V123.88Z" fill="white"/>
<path d="M101.2 124.62C100.04 124.62 98.79 124.48 97.47 124.14C91.97 122.73 89.2 120.05 87.84 118.04C87.79 117.97 87.78 117.89 87.81 117.81C88.36 116.05 88.92 114.26 89.53 112.52C92.54 103.88 96.56 98.29 101.8 95.44C102.73 94.94 104.12 94.29 105.57 94.46C106.89 94.62 108.28 95.65 108.34 97.11C108.4 98.74 106.99 99.6601 105.62 100.55C104.69 101.16 103.73 101.78 103.25 102.62C104.04 102.25 105.01 102.2 105.96 102.5C107.15 102.88 108.04 103.72 108.36 104.77C109.19 104.93 109.94 105.46 110.45 106.25C110.96 107.05 111.12 107.96 110.9 108.78C111.95 109.81 112.32 111.45 111.8 112.84C111.29 114.2 109.96 115.18 108.52 115.29C108.33 117.84 108.03 120.42 107.64 122.97C107.63 123.06 107.57 123.13 107.49 123.17C105.96 123.89 103.8 124.6 101.19 124.6L101.2 124.62ZM97.6 123.62C101.66 124.66 105.01 123.75 107.14 122.76C107.53 120.19 107.82 117.59 108.01 115.02C108.02 114.88 108.14 114.77 108.28 114.77C109.58 114.77 110.85 113.88 111.31 112.66C111.77 111.44 111.4 109.94 110.43 109.07C110.35 109 110.32 108.89 110.35 108.79C110.58 108.08 110.45 107.26 110 106.54C109.55 105.83 108.86 105.37 108.12 105.27C108.01 105.26 107.92 105.18 107.89 105.07C107.65 104.12 106.87 103.35 105.79 103.01C104.71 102.67 103.63 102.84 102.89 103.47C102.8 103.54 102.68 103.56 102.58 103.5C102.48 103.44 102.43 103.33 102.45 103.22C102.73 101.78 104.04 100.92 105.31 100.1C106.61 99.26 107.84 98.46 107.79 97.13C107.74 95.97 106.56 95.12 105.49 94.99C104.19 94.83 102.9 95.4401 102.04 95.9101C96.92 98.6901 92.99 104.18 90.02 112.69C89.43 114.39 88.88 116.14 88.35 117.84C89.68 119.76 92.36 122.27 97.6 123.61V123.62Z" fill="black"/>
<path d="M98.72 116.29C98.49 116.29 98.27 116.25 98.05 116.16C97.91 116.1 97.85 115.95 97.91 115.81C97.97 115.67 98.13 115.61 98.26 115.67C98.96 115.96 99.78 115.52 100.23 114.94C100.66 114.38 100.88 113.67 101.1 112.98C101.14 112.86 101.17 112.74 101.21 112.63C101.48 111.8 101.86 110.87 102.63 110.3C103.05 109.99 103.53 109.83 103.99 109.67C104.22 109.59 104.43 109.52 104.64 109.43C105.19 109.19 105.79 108.73 105.8 108.13C105.82 107.43 105.07 106.91 104.61 106.67C102.98 105.78 101.01 105.5 99.19 105.9C97.38 106.3 95.7 107.37 94.58 108.86C94.49 108.98 94.32 109 94.2 108.91C94.08 108.82 94.0601 108.65 94.1501 108.53C95.3401 106.94 97.14 105.79 99.07 105.37C101.01 104.95 103.12 105.25 104.86 106.19C105.83 106.72 106.35 107.41 106.33 108.14C106.31 108.86 105.75 109.52 104.84 109.91C104.61 110.01 104.38 110.09 104.15 110.17C103.7 110.32 103.28 110.47 102.93 110.73C102.28 111.21 101.94 112.04 101.7 112.8C101.66 112.92 101.63 113.03 101.59 113.15C101.36 113.88 101.12 114.64 100.64 115.28C100.2 115.85 99.4601 116.31 98.7101 116.31L98.72 116.29Z" fill="black"/>
<path d="M103.74 112.37C103.08 112.37 102.42 112.14 101.98 111.58C101.89 111.46 101.91 111.3 102.02 111.2C102.14 111.11 102.3 111.13 102.4 111.24C102.92 111.9 103.93 111.94 104.62 111.65C105.29 111.36 105.89 110.77 106.45 109.84C107.26 108.51 107.74 106.98 107.84 105.42C107.84 105.27 107.98 105.16 108.13 105.17C108.28 105.18 108.39 105.31 108.38 105.46C108.27 107.1 107.76 108.71 106.91 110.12C106.29 111.14 105.61 111.81 104.83 112.14C104.5 112.28 104.12 112.36 103.74 112.36V112.37Z" fill="black"/>
<path d="M106.11 114.06C104.93 114.06 103.82 113.33 103.49 112.31C103.45 112.17 103.52 112.02 103.66 111.97C103.8 111.92 103.95 112 104 112.14C104.28 113.02 105.31 113.62 106.35 113.51C107.27 113.41 108.19 112.82 108.88 111.88C109.49 111.05 109.85 110.11 110.27 108.96C110.32 108.82 110.47 108.75 110.61 108.8C110.75 108.85 110.82 109 110.77 109.14C110.43 110.07 110.01 111.24 109.31 112.19C108.54 113.24 107.48 113.92 106.41 114.03C106.31 114.04 106.21 114.05 106.11 114.05V114.06Z" fill="black"/>
<path d="M108 115.22C107.2 115.22 106.4 114.81 105.97 114.14C105.89 114.02 105.93 113.85 106.05 113.77C106.17 113.69 106.34 113.73 106.42 113.85C106.83 114.48 107.66 114.82 108.39 114.64C108.53 114.61 108.68 114.69 108.71 114.84C108.74 114.98 108.66 115.13 108.51 115.16C108.34 115.2 108.17 115.22 107.99 115.22H108Z" fill="black"/>
<path d="M51.39 115.62C52.02 115.26 54.59 117.16 55.22 117.51C57.96 119.03 60.69 120.55 63.43 122.07C69.64 125.52 75.85 128.97 82.06 132.43C84.9 128 86.49 122.94 88.07 117.89C89.53 120.05 92.3 122.54 97.54 123.88C101.66 124.93 105.11 124.02 107.39 122.95C106.16 130.94 103.98 138.78 100.88 146.24C99.43 149.73 97.68 153.28 94.66 155.55C91.64 157.81 87.64 158.51 83.9 158.01C80.16 157.5 75.78 156.1 72.57 154.12C64.47 149.11 57.42 145.34 53.57 136.64C51.65 132.29 51.86 123.62 51.32 118.9C51.25 118.25 50.69 116.04 51.39 115.63V115.62Z" fill="white"/>
<path d="M86.2 158.42C85.43 158.42 84.65 158.37 83.86 158.26C79.85 157.72 75.47 156.21 72.43 154.33C71.79 153.94 71.16 153.55 70.54 153.17C63.23 148.69 56.91 144.82 53.33 136.74C51.95 133.61 51.66 128.42 51.41 123.84C51.31 122.02 51.21 120.29 51.06 118.92C51.05 118.81 51.02 118.64 50.98 118.45C50.75 117.12 50.58 115.78 51.26 115.39C51.79 115.08 52.88 115.67 54.71 116.87C54.99 117.05 55.22 117.21 55.36 117.28L81.97 132.08C84.71 127.72 86.29 122.68 87.82 117.81C87.85 117.71 87.93 117.64 88.04 117.62C88.14 117.61 88.24 117.65 88.3 117.73C89.61 119.66 92.28 122.24 97.62 123.61C101.76 124.67 105.17 123.7 107.29 122.69C107.38 122.65 107.49 122.66 107.56 122.72C107.64 122.78 107.68 122.88 107.66 122.98C106.43 131 104.23 138.86 101.14 146.33C99.68 149.86 97.9 153.45 94.83 155.75C92.52 157.49 89.46 158.42 86.21 158.42H86.2ZM51.63 115.83C51.63 115.83 51.56 115.83 51.53 115.85C51.12 116.09 51.41 117.73 51.51 118.35C51.55 118.56 51.58 118.73 51.59 118.85C51.75 120.24 51.85 121.97 51.95 123.8C52.2 128.34 52.48 133.48 53.83 136.52C57.34 144.45 63.59 148.28 70.83 152.71C71.45 153.09 72.09 153.48 72.72 153.87C75.71 155.72 80.01 157.19 83.94 157.73C87.9 158.27 91.75 157.39 94.5 155.33C97.46 153.11 99.2 149.6 100.63 146.14C103.65 138.86 105.8 131.21 107.04 123.4C104.82 124.36 101.48 125.17 97.46 124.15C92.36 122.84 89.6 120.44 88.15 118.5C86.64 123.32 85.04 128.28 82.27 132.59C82.19 132.71 82.04 132.75 81.91 132.68L55.08 117.76C54.93 117.68 54.7 117.52 54.4 117.33C52.9 116.34 51.96 115.85 51.61 115.85L51.63 115.83Z" fill="black"/>
<path d="M78.43 136.9C78.36 136.9 78.29 136.87 78.24 136.82C78.14 136.71 78.14 136.54 78.24 136.44C79.25 135.48 80.16 134.41 80.96 133.27C81.05 133.15 81.21 133.12 81.33 133.2C81.45 133.29 81.48 133.45 81.4 133.57C80.58 134.74 79.64 135.83 78.61 136.82C78.56 136.87 78.49 136.89 78.42 136.89L78.43 136.9Z" fill="black"/>
<path d="M53.23 111.37C54.29 111.65 55.1101 112.47 55.4001 113.53C59.5701 129.03 67.63 154.14 71.2 169.82C71.82 172.55 72.2501 175.43 71.4601 178.11C70.7401 180.55 69.05 182.62 67.07 184.22C65.09 185.82 62.81 187 60.55 188.18C57.42 181.09 56.52 162.35 54.01 155.02C51.58 147.92 49.15 140.79 47.62 133.44C46.55 128.29 29.53 128.75 29.68 123.48C29.72 121.99 24.38 113.93 25.38 112.71C27.77 109.78 51.17 110.84 53.23 111.37Z" fill="white"/>
<path d="M60.55 188.45C60.55 188.45 60.49 188.45 60.46 188.43C60.39 188.41 60.33 188.35 60.3 188.29C58.58 184.38 57.53 177.03 56.52 169.93C55.68 164.01 54.88 158.41 53.76 155.11C51.37 148.11 48.9 140.88 47.36 133.5C46.87 131.14 42.5699 129.98 38.4099 128.85C33.7399 127.58 29.3299 126.39 29.4099 123.48C29.4299 122.93 28.47 121.1 27.55 119.33C25.69 115.75 24.5199 113.35 25.1599 112.55C27.6799 109.45 51.41 110.63 53.28 111.12C54.43 111.42 55.33 112.32 55.64 113.47C57.23 119.38 59.37 126.64 61.64 134.33C65.37 146.98 69.23 160.06 71.44 169.77C72.03 172.36 72.52 175.39 71.69 178.2C71.02 180.46 69.48 182.62 67.21 184.45C65.2 186.07 62.89 187.28 60.65 188.44C60.61 188.46 60.57 188.47 60.53 188.47L60.55 188.45ZM40.31 111.03C33.68 111.03 26.75 111.45 25.59 112.88C25.12 113.46 26.8699 116.84 28.0399 119.07C29.2399 121.38 29.98 122.83 29.96 123.49C29.89 125.97 34.3 127.17 38.56 128.32C42.87 129.49 47.33 130.7 47.89 133.38C49.42 140.73 51.89 147.95 54.27 154.93C55.41 158.28 56.21 163.9 57.06 169.85C58.04 176.76 59.06 183.91 60.69 187.81C62.82 186.7 65.0199 185.54 66.9099 184.01C69.0899 182.25 70.57 180.18 71.21 178.03C72.01 175.34 71.52 172.39 70.95 169.87C68.74 160.18 64.89 147.11 61.15 134.47C58.88 126.78 56.74 119.51 55.14 113.6C54.88 112.64 54.1199 111.89 53.1599 111.63C52.2099 111.38 46.38 111.03 40.31 111.03Z" fill="black"/>
<path d="M1.53998 214.54C11.27 188.51 17.41 174.06 22.08 165.75L62.32 164.53C62.32 164.53 65.81 190.03 65.62 223.03L1.53003 214.54H1.53998Z" fill="white"/>
<path d="M36.96 223.3C36.96 223.3 36.9 223.3 36.88 223.29C36.74 223.24 36.66 223.09 36.71 222.95L47.43 190.26C48.08 188.27 49.76 186.73 51.8 186.26L54.8 185.57C54.95 185.54 55.09 185.63 55.12 185.77C55.15 185.91 55.06 186.06 54.92 186.09L51.92 186.78C50.06 187.21 48.53 188.61 47.94 190.42L37.22 223.11C37.18 223.22 37.08 223.29 36.97 223.29L36.96 223.3Z" fill="black"/>
<path d="M1.53997 214.81C1.53997 214.81 1.48 214.81 1.45 214.79C1.31 214.74 1.23997 214.58 1.28997 214.44C12.83 183.59 17.83 172.76 21.85 165.61C21.9 165.53 21.98 165.48 22.08 165.47L62.32 164.25C62.46 164.25 62.58 164.35 62.59 164.48C62.63 164.73 66.07 190.25 65.89 222.89C65.89 223.04 65.77 223.16 65.62 223.16C65.47 223.16 65.35 223.04 65.35 222.89C65.52 191.97 62.44 167.46 62.09 164.79L22.25 166C18.22 173.23 13.26 183.98 1.79998 214.62C1.75998 214.73 1.65998 214.79 1.54998 214.79L1.53997 214.81Z" fill="black"/>
<path d="M27.77 165.82H61.68C63.41 165.82 64.66 164.17 64.2 162.5C63.14 158.67 61.2 151.66 58.6 142.3C54.57 127.79 51.97 117.58 50.56 114.19C49.15 110.8 48.91 108.96 43.17 108.71C37.88 108.47 31.52 107.66 30.9 113.65C30.78 114.81 30.15 115.86 29.21 116.55L25.45 119.34L27.77 165.82Z" fill="#95D2E5"/>
<path d="M40.18 125.4C40.11 125.4 40.03 125.37 39.98 125.31L34.68 119.52C34.58 119.41 34.59 119.24 34.7 119.14C34.81 119.04 34.98 119.05 35.08 119.16L40.15 124.69L44.34 118.05C44.38 117.99 44.44 117.94 44.51 117.93C44.58 117.92 44.66 117.93 44.72 117.97L50.25 121.8L51.08 118.81C51.12 118.67 51.27 118.58 51.41 118.62C51.55 118.66 51.64 118.81 51.6 118.95L50.67 122.31C50.65 122.39 50.58 122.46 50.5 122.49C50.42 122.52 50.33 122.51 50.26 122.46L44.65 118.57L40.43 125.27C40.39 125.34 40.31 125.39 40.23 125.39H40.21L40.18 125.4Z" fill="white"/>
<path d="M72.67 150.13H90.2C95.45 150.13 100.64 151.28 105.4 153.51L101.05 155.12L109.44 169.69C110.85 172.14 108.04 174.95 105.95 173.16C105.9 173.12 105.86 173.08 105.81 173.03C106.33 175.55 102.89 176.2 101.15 174C101.62 176.31 98.49 177.47 96.39 174.99C97.15 177.64 93.42 178.69 91.71 175.96C89.91 173.08 84.36 163.59 84.36 163.59H72.36L72.67 150.12V150.13Z" fill="white"/>
<path d="M94.36 177.83C93.35 177.83 92.23 177.31 91.47 176.1C89.8 173.44 84.88 165.02 84.2 163.86H72.35C72.28 163.86 72.21 163.83 72.16 163.78C72.11 163.73 72.08 163.66 72.08 163.59L72.39 150.12C72.39 149.97 72.51 149.86 72.66 149.86H90.19C95.45 149.86 100.74 151.04 105.5 153.26C105.6 153.31 105.66 153.41 105.65 153.51C105.65 153.62 105.58 153.71 105.48 153.75L101.42 155.25L109.65 169.55C110.49 171 109.94 172.58 108.97 173.38C108.1 174.1 107.01 174.18 106.1 173.61C106.07 174.39 105.65 175.02 104.93 175.35C103.99 175.79 102.55 175.66 101.43 174.69C101.35 175.42 100.92 176.03 100.22 176.37C99.3 176.82 97.94 176.75 96.73 175.72C96.7 176.54 96.25 177.24 95.46 177.59C95.12 177.74 94.74 177.82 94.34 177.82L94.36 177.83ZM72.63 163.32H84.36C84.46 163.32 84.54 163.37 84.59 163.45C84.65 163.55 90.15 172.97 91.93 175.81C92.82 177.24 94.28 177.54 95.26 177.1C96.07 176.74 96.39 175.97 96.12 175.05C96.08 174.93 96.14 174.8 96.25 174.74C96.36 174.68 96.5 174.71 96.58 174.8C97.72 176.14 99.12 176.31 100 175.88C100.71 175.53 101.04 174.84 100.88 174.03C100.86 173.91 100.92 173.79 101.03 173.73C101.14 173.68 101.28 173.71 101.35 173.81C102.33 175.05 103.82 175.27 104.72 174.85C105.41 174.53 105.7 173.88 105.54 173.06C105.52 172.95 105.57 172.83 105.67 172.77C105.77 172.71 105.9 172.73 105.99 172.81C106.03 172.85 106.08 172.89 106.12 172.93C107.04 173.72 108.03 173.46 108.65 172.95C109.42 172.31 109.92 171.05 109.2 169.8L100.81 155.23C100.77 155.16 100.76 155.08 100.79 155.01C100.82 154.94 100.88 154.88 100.95 154.85L104.69 153.46C100.15 151.44 95.15 150.38 90.19 150.38H72.93L72.63 163.31V163.32Z" fill="black"/>
<path d="M90.08 165L85.26 167.08C84.29 167.5 83.16 167.05 82.74 166.08C82.32 165.11 82.77 163.98 83.74 163.56L88.56 161.48C89.53 161.06 90.66 161.51 91.08 162.48C91.5 163.45 91.05 164.58 90.08 165Z" fill="white"/>
<path d="M84.5 167.5C84.23 167.5 83.95 167.45 83.69 167.34C83.15 167.12 82.72 166.71 82.49 166.17C82.01 165.06 82.52 163.77 83.63 163.3L88.45 161.22C88.99 160.99 89.58 160.98 90.12 161.2C90.66 161.42 91.09 161.83 91.32 162.37C91.8 163.48 91.29 164.77 90.18 165.24L85.36 167.32C85.08 167.44 84.79 167.5 84.5 167.5ZM89.32 161.58C89.1 161.58 88.88 161.63 88.67 161.72L83.85 163.8C83.02 164.16 82.63 165.13 82.99 165.97C83.16 166.37 83.49 166.69 83.89 166.85C84.3 167.01 84.75 167.01 85.15 166.83L89.97 164.75C90.8 164.39 91.19 163.42 90.83 162.58C90.66 162.18 90.33 161.86 89.93 161.7C89.73 161.62 89.53 161.58 89.32 161.58Z" fill="black"/>
<path d="M91.99 168.26L87.17 170.34C86.2 170.76 85.07 170.31 84.65 169.34C84.23 168.37 84.68 167.24 85.65 166.82L90.47 164.74C91.4399 164.32 92.57 164.77 92.99 165.74C93.41 166.71 92.96 167.84 91.99 168.26Z" fill="white"/>
<path d="M86.42 170.77C86.15 170.77 85.87 170.72 85.61 170.61C85.07 170.39 84.64 169.98 84.41 169.44C83.93 168.33 84.44 167.04 85.55 166.57L90.37 164.49C90.91 164.26 91.5 164.25 92.04 164.47C92.58 164.69 93.01 165.1 93.24 165.64C93.72 166.75 93.21 168.03 92.1 168.51L87.28 170.59C87 170.71 86.71 170.77 86.42 170.77ZM91.23 164.85C91.01 164.85 90.79 164.9 90.58 164.99L85.76 167.07C84.93 167.43 84.54 168.4 84.9 169.24C85.07 169.64 85.4 169.96 85.8 170.12C86.21 170.28 86.66 170.28 87.06 170.1L91.88 168.02C92.71 167.66 93.1 166.69 92.74 165.85C92.57 165.45 92.24 165.13 91.84 164.97C91.64 164.89 91.44 164.85 91.23 164.85Z" fill="black"/>
<path d="M94.19 171.52L89.37 173.6C88.4 174.02 87.27 173.57 86.85 172.6C86.43 171.63 86.88 170.5 87.85 170.08L92.67 168C93.64 167.58 94.77 168.03 95.19 169C95.61 169.97 95.16 171.1 94.19 171.52Z" fill="white"/>
<path d="M88.61 174.03C88.34 174.03 88.06 173.98 87.8 173.87C87.26 173.65 86.83 173.24 86.6 172.7C86.12 171.59 86.63 170.3 87.74 169.83L92.56 167.75C93.09 167.52 93.69 167.51 94.23 167.72C94.77 167.94 95.2 168.35 95.43 168.89C95.91 170 95.4 171.29 94.29 171.76L89.47 173.84C89.19 173.96 88.9 174.02 88.61 174.02V174.03ZM93.43 168.11C93.21 168.11 92.99 168.16 92.78 168.25L87.96 170.33C87.13 170.69 86.74 171.66 87.1 172.5C87.27 172.9 87.6 173.22 88 173.38C88.41 173.54 88.86 173.54 89.26 173.36L94.08 171.28C94.91 170.92 95.3 169.95 94.94 169.11C94.77 168.71 94.44 168.39 94.03 168.23C93.83 168.15 93.63 168.11 93.42 168.11H93.43Z" fill="black"/>
<path d="M96 174.19L92.0301 175.91C91.2301 176.26 90.3 175.89 89.95 175.09C89.6 174.29 89.97 173.36 90.77 173.01L94.74 171.29C95.54 170.94 96.47 171.31 96.82 172.11C97.17 172.91 96.8 173.84 96 174.19Z" fill="white"/>
<path d="M91.4 176.3C91.17 176.3 90.9399 176.26 90.7199 176.17C90.2599 175.99 89.9 175.64 89.7 175.18C89.3 174.24 89.7299 173.15 90.6599 172.75L94.63 171.03C95.08 170.83 95.58 170.83 96.04 171.01C96.5 171.19 96.86 171.54 97.06 172C97.46 172.94 97.0299 174.03 96.0999 174.43L92.13 176.15C91.9 176.25 91.65 176.3 91.4 176.3ZM95.37 171.42C95.19 171.42 95.0199 171.46 94.8499 171.53L90.88 173.25C90.22 173.54 89.91 174.31 90.2 174.98C90.34 175.3 90.59 175.55 90.92 175.68C91.25 175.81 91.6 175.8 91.92 175.66L95.89 173.94C96.55 173.65 96.86 172.88 96.57 172.21C96.43 171.89 96.1799 171.64 95.8499 171.51C95.6899 171.45 95.53 171.42 95.37 171.42Z" fill="black"/>
<path d="M103.76 154.1L93.46 157.54C93.46 157.54 93.23 161.29 96.92 160.47C102.11 159.32 103.16 161.42 105.9 162.15C110.37 163.35 112.72 160.9 112.72 160.9L103.76 154.09V154.1Z" fill="white"/>
<path d="M108.3 162.77C107.56 162.77 106.73 162.67 105.82 162.43C104.99 162.21 104.31 161.86 103.65 161.53C102.05 160.72 100.54 159.96 96.97 160.75C95.79 161.01 94.86 160.86 94.2 160.29C93.09 159.34 93.18 157.61 93.19 157.54C93.19 157.43 93.27 157.34 93.37 157.3L103.68 153.86C103.82 153.81 103.97 153.89 104.02 154.03C104.07 154.17 103.99 154.32 103.85 154.37L93.73 157.75C93.73 158.18 93.84 159.27 94.56 159.89C95.09 160.34 95.86 160.45 96.87 160.23C100.63 159.39 102.3 160.23 103.91 161.05C104.58 161.39 105.2 161.7 105.98 161.91C110.25 163.06 112.52 160.76 112.54 160.73C112.64 160.62 112.81 160.62 112.92 160.73C113.03 160.83 113.03 161 112.92 161.11C112.84 161.19 111.28 162.78 108.31 162.78L108.3 162.77Z" fill="black"/>
<path d="M19.1599 121.9C20.9299 120.13 22.66 119.28 23.24 116.84C23.63 115.2 23.71 112.85 25.38 112.7C25.38 112.7 28.75 112.33 31.06 116.21C32.22 118.16 32.56 120.47 32.87 122.72C34.86 137.33 36.39 159.71 33.71 174.21C33.33 176.29 31.78 185.05 27.13 187.28C24.16 188.7 20.42 188.4 17.13 188.4C13.84 188.4 2.21995 189.6 1.34995 187.29C1.17995 186.84 0.629977 186.54 0.689977 185.4C2.21998 178.54 7.66999 156.58 11.58 143.14C14.34 133.64 16.4199 124.65 19.1599 121.9Z" fill="white"/>
<path d="M4.84001 188.87C4.54001 188.87 4.24996 188.87 3.96996 188.87C2.88996 188.87 1.88 188.39 1.2 187.54C0.519998 186.7 0.259976 185.6 0.489976 184.54C3.12998 172.4 14.71 128.35 18.33 122.38C18.89 121.45 19.72 120.72 20.52 120.01C21.62 119.03 22.66 118.11 22.98 116.78C23.05 116.49 23.11 116.18 23.17 115.85C23.46 114.32 23.79 112.58 25.36 112.44C25.46 112.43 28.03 112.18 30.27 114.67C30.37 114.78 30.36 114.95 30.25 115.05C30.14 115.15 29.97 115.14 29.87 115.03C27.82 112.75 25.44 112.97 25.41 112.97C24.24 113.07 23.96 114.53 23.69 115.95C23.63 116.29 23.57 116.6 23.49 116.91C23.13 118.41 21.98 119.43 20.87 120.42C20.1 121.1 19.3 121.81 18.78 122.67C15.18 128.59 3.63999 172.54 0.999986 184.66C0.799986 185.56 1.01996 186.49 1.59996 187.21C2.17996 187.93 3.03 188.34 3.95 188.34C9.85 188.34 20.11 188.32 22.42 188.16C26.29 187.89 29.3 186.28 30.49 183.84C31.29 182.2 35.49 168.81 35.44 166.88C35.44 166.73 35.55 166.61 35.7 166.6C35.84 166.6 35.96 166.71 35.97 166.86C36.03 168.91 31.8 182.36 30.97 184.07C29.14 187.84 24.4 188.56 22.45 188.69C20.24 188.84 10.82 188.87 4.81999 188.87H4.84001Z" fill="black"/>
<path d="M30.97 123.71L48.64 149.47H79.76V169.99L45.45 171.97C45.35 171.97 45.25 171.97 45.15 171.97C38.51 171.92 32.3 168.65 28.5 163.19L18.13 148.28C11.86 139.27 15.42 126.78 25.48 122.43L25.9 122.25C27.72 121.46 29.84 122.08 30.97 123.71Z" fill="white"/>
<path d="M36.14 170.08C36.14 170.08 36.0601 170.08 36.0201 170.05C32.93 168.5 30.25 166.18 28.2701 163.34L16.9601 147.09C16.8801 146.97 16.9101 146.8 17.0301 146.72C17.1501 146.64 17.3201 146.67 17.4001 146.79L28.7101 163.04C30.6301 165.81 33.24 168.07 36.25 169.57C36.38 169.64 36.44 169.8 36.37 169.93C36.32 170.02 36.23 170.08 36.13 170.08H36.14Z" fill="black"/>
<path d="M45.31 172.24C38.51 172.24 32.15 168.91 28.28 163.34C28.2 163.22 28.23 163.05 28.35 162.97C28.47 162.89 28.64 162.92 28.72 163.04C32.5 168.47 38.69 171.71 45.3 171.71L79.49 169.73V149.73H61.04C60.89 149.73 60.77 149.61 60.77 149.46C60.77 149.31 60.89 149.19 61.04 149.19H79.76C79.91 149.19 80.03 149.31 80.03 149.46V169.98C80.03 170.12 79.92 170.24 79.78 170.25L45.32 172.24H45.31Z" fill="black"/>
<path d="M30.21 88.83C30.62 87.42 34.36 83.0601 35.52 82.1601C36.68 81.2601 38.46 81.04 39.58 81.99C42.23 80.17 45.77 79.5901 48.75 80.7901C51.73 81.9901 53.96 85.0501 53.87 88.2601C53.78 91.4701 47.75 88.9001 47.97 94.8101C47.46 97.6001 44.85 99.7101 42.05 100.15C39.52 100.54 35.09 99.48 33.62 96.95C32 94.16 29.19 92.35 30.22 88.84L30.21 88.83Z" fill="black"/>
<path d="M46.65 104.93L44.56 118.2C44.56 118.2 34.93 112.2 34.86 112.11C34.79 112.02 36.5 100.73 36.5 100.73C36.5 100.73 38.73 97 46.65 104.94V104.93Z" fill="white"/>
<path d="M50.17 93.0001C50.17 93.0001 53.76 102.48 50.17 105.54C48.04 107.35 41.3 108.3 36.99 101.78C36.99 101.78 34.01 101.93 33.33 98.87C32.65 95.81 34.17 94.6601 36.64 96.8101C36.64 96.8101 39.62 98.33 38.64 94.1C38.21 92.26 39.79 90.57 43.23 89.58C49.46 87.78 48.88 89.3501 50.17 93.0001Z" fill="white"/>
<path d="M45.73 107.14C45.29 107.14 44.82 107.11 44.35 107.04C42.26 106.74 39.27 105.63 36.85 102.04C36.2 102.02 33.7 101.74 33.07 98.9201C32.71 97.2801 32.94 96.08 33.71 95.62C34.46 95.17 35.56 95.51 36.79 96.58C37.08 96.72 37.82 96.96 38.22 96.65C38.51 96.43 38.77 95.81 38.38 94.15C37.9 92.09 39.64 90.3301 43.16 89.3101C48.54 87.7501 49.08 88.6101 49.99 91.5501C50.11 91.9601 50.26 92.41 50.43 92.9C50.59 93.33 54.04 102.6 50.35 105.73C49.46 106.49 47.77 107.13 45.73 107.13V107.14ZM37 101.51C37.09 101.51 37.17 101.56 37.22 101.63C39.55 105.15 42.42 106.23 44.43 106.51C46.9 106.86 49.01 106.17 50 105.33C53.41 102.43 49.96 93.19 49.92 93.09C49.74 92.59 49.6 92.12 49.47 91.71C48.67 89.13 48.44 88.35 43.3 89.83C40.1 90.76 38.49 92.29 38.9 94.03C39.26 95.6 39.15 96.6 38.54 97.07C37.77 97.67 36.56 97.0701 36.51 97.0401C36.49 97.0401 36.47 97.02 36.46 97C35.42 96.1 34.52 95.76 33.98 96.08C33.43 96.41 33.28 97.4201 33.59 98.8001C34.21 101.59 36.86 101.51 36.98 101.5C36.98 101.5 36.98 101.5 36.99 101.5L37 101.51Z" fill="black"/>
<path d="M37.06 100.04C36.97 100.04 36.88 99.99 36.83 99.9C36.45 99.23 35.67 98.78 34.89 98.78C34.74 98.78 34.62 98.66 34.62 98.51C34.62 98.36 34.74 98.24 34.89 98.24H34.9C35.87 98.24 36.82 98.79 37.3 99.63C37.37 99.76 37.33 99.92 37.2 100C37.16 100.02 37.11 100.04 37.07 100.04H37.06Z" fill="black"/>
<path d="M35.6 108.57L35.07 108.49C35.07 108.49 35.66 104.45 36.08 101.68C36.1 101.53 36.24 101.44 36.39 101.45C36.54 101.47 36.64 101.61 36.62 101.76C36.2 104.53 35.61 108.57 35.61 108.57H35.6Z" fill="black"/>
<path d="M46.05 109C46.05 109 46.02 109 46.01 109C45.86 108.98 45.76 108.84 45.79 108.69L46.08 106.83C46.1 106.68 46.24 106.58 46.39 106.61C46.54 106.63 46.64 106.77 46.61 106.92L46.32 108.78C46.3 108.91 46.19 109.01 46.06 109.01L46.05 109Z" fill="black"/>
<path d="M121.3 13.9699C105.76 26.0899 102.97 48.55 115.08 64.14C127.19 79.73 149.6 82.55 165.14 70.43C180.68 58.31 183.47 35.85 171.36 20.26C159.25 4.66996 136.84 1.84992 121.3 13.9699Z" fill="white"/>
<path d="M143.33 78.23C141.83 78.23 140.32 78.1399 138.81 77.9499C129.27 76.7599 120.77 71.91 114.86 64.3101C102.68 48.6301 105.5 25.95 121.13 13.76C128.69 7.86 138.1 5.26995 147.62 6.45995C157.16 7.64995 165.66 12.5 171.57 20.1C183.75 35.78 180.93 58.46 165.3 70.65C158.94 75.61 151.27 78.23 143.33 78.23ZM143.11 6.70995C135.29 6.70995 127.74 9.29005 121.47 14.18C106.07 26.19 103.3 48.52 115.29 63.97C121.11 71.46 129.49 76.24 138.88 77.41C148.25 78.58 157.52 76.03 164.97 70.22C180.37 58.21 183.14 35.88 171.15 20.43C165.33 12.94 156.95 8.15998 147.56 6.98998C146.07 6.79998 144.59 6.70995 143.11 6.70995Z" fill="black"/>
<path d="M126.39 4.55005C143.28 -3.18995 163.87 1.36003 175.81 16.66L143.27 42.03C143.27 42.03 129.26 10.75 126.39 4.55005Z" fill="white"/>
<path d="M143.27 42.3C143.27 42.3 143.23 42.3 143.21 42.3C143.13 42.28 143.06 42.22 143.03 42.15C142.89 41.84 128.99 10.8 126.15 4.67C126.12 4.61 126.12 4.52991 126.15 4.45991C126.17 4.38991 126.23 4.34001 126.29 4.31001C134.59 0.500011 144.09 -0.420087 153.03 1.70991C162.24 3.89991 170.19 9.01995 176.04 16.5C176.08 16.56 176.1 16.6299 176.09 16.6999C176.09 16.7699 176.04 16.84 175.99 16.88L143.45 42.25C143.45 42.25 143.34 42.31 143.29 42.31L143.27 42.3ZM126.74 4.68001C129.65 10.99 141.92 38.3599 143.37 41.6099L175.43 16.6199C163.77 1.87995 143.82 -3.01011 126.74 4.68989V4.68001Z" fill="black"/>
<path d="M181.88 41.87C182.07 52.25 178.02 62.13 171 69.36C164.28 62.74 143.61 42.3199 143.61 42.3199C143.61 42.3199 175.51 42.01 181.88 41.87Z" fill="white"/>
<path d="M171 69.63C170.93 69.63 170.86 69.6 170.81 69.55C164.17 63.01 143.63 42.72 143.42 42.51C143.34 42.43 143.32 42.32 143.36 42.22C143.4 42.12 143.5 42.05 143.61 42.05C143.93 42.05 175.58 41.74 181.87 41.6C181.94 41.6 182.01 41.63 182.06 41.67C182.11 41.71 182.14 41.79 182.14 41.86C182.33 52.09 178.34 62.18 171.18 69.54C171.13 69.59 171.06 69.62 170.99 69.62L171 69.63ZM144.26 42.59C147.31 45.61 164.73 62.81 170.99 68.98C177.86 61.8 181.72 52.05 181.61 42.15C175.29 42.28 148.74 42.54 144.25 42.59H144.26Z" fill="black"/>
<path d="M109.36 78.47C119.373 78.47 127.49 70.3439 127.49 60.3199C127.49 50.296 119.373 42.17 109.36 42.17C99.3471 42.17 91.23 50.296 91.23 60.3199C91.23 70.3439 99.3471 78.47 109.36 78.47Z" fill="white"/>
<path d="M109.36 78.74C99.21 78.74 90.96 70.4799 90.96 60.3199C90.96 50.1599 99.21 41.9 109.36 41.9C119.51 41.9 127.76 50.1599 127.76 60.3199C127.76 70.4799 119.51 78.74 109.36 78.74ZM109.36 42.4301C99.51 42.4301 91.5 50.4499 91.5 60.3199C91.5 70.1899 99.51 78.21 109.36 78.21C119.21 78.21 127.22 70.1899 127.22 60.3199C127.22 50.4499 119.21 42.4301 109.36 42.4301Z" fill="black"/>
<path d="M114.09 78.47C124.103 78.47 132.22 70.3439 132.22 60.3199C132.22 50.296 124.103 42.17 114.09 42.17C104.077 42.17 95.96 50.296 95.96 60.3199C95.96 70.3439 104.077 78.47 114.09 78.47Z" fill="white"/>
<path d="M114.09 78.74C103.94 78.74 95.69 70.4799 95.69 60.3199C95.69 50.1599 103.94 41.9 114.09 41.9C124.24 41.9 132.49 50.1599 132.49 60.3199C132.49 70.4799 124.24 78.74 114.09 78.74ZM114.09 42.4301C104.24 42.4301 96.23 50.4499 96.23 60.3199C96.23 70.1899 104.24 78.21 114.09 78.21C123.94 78.21 131.95 70.1899 131.95 60.3199C131.95 50.4499 123.94 42.4301 114.09 42.4301Z" fill="black"/>
<path d="M118.65 78.47C128.663 78.47 136.78 70.3439 136.78 60.3199C136.78 50.296 128.663 42.17 118.65 42.17C108.637 42.17 100.52 50.296 100.52 60.3199C100.52 70.3439 108.637 78.47 118.65 78.47Z" fill="white"/>
<path d="M118.65 78.74C108.51 78.74 100.25 70.4799 100.25 60.3199C100.25 50.1599 108.5 41.9 118.65 41.9C128.8 41.9 137.05 50.1599 137.05 60.3199C137.05 70.4799 128.8 78.74 118.65 78.74ZM118.65 42.4301C108.8 42.4301 100.79 50.4499 100.79 60.3199C100.79 70.1899 108.8 78.21 118.65 78.21C128.5 78.21 136.51 70.1899 136.51 60.3199C136.51 50.4499 128.5 42.4301 118.65 42.4301Z" fill="black"/>
<path d="M118.65 74.59C126.52 74.59 132.9 68.201 132.9 60.3199C132.9 52.4388 126.52 46.05 118.65 46.05C110.78 46.05 104.4 52.4388 104.4 60.3199C104.4 68.201 110.78 74.59 118.65 74.59Z" fill="white"/>
<path d="M118.65 74.86C110.64 74.86 104.13 68.3399 104.13 60.3199C104.13 52.2999 110.64 45.78 118.65 45.78C126.66 45.78 133.17 52.2999 133.17 60.3199C133.17 68.3399 126.66 74.86 118.65 74.86ZM118.65 46.3101C110.94 46.3101 104.66 52.5901 104.66 60.3101C104.66 68.0301 110.93 74.3101 118.65 74.3101C126.37 74.3101 132.64 68.0301 132.64 60.3101C132.64 52.5901 126.37 46.3101 118.65 46.3101Z" fill="black"/>
<path d="M122.49 61.95C122.35 61.59 122.12 61.25 121.83 60.96C121.54 60.67 121.16 60.4001 120.72 60.1801C120.28 59.9601 119.64 59.7 118.81 59.42C117.99 59.14 117.35 58.85 116.89 58.58C116.44 58.31 116.12 58 115.93 57.66C115.74 57.33 115.64 56.86 115.64 56.28C115.64 55.47 115.93 54.79 116.5 54.28C117.08 53.77 117.85 53.51 118.81 53.51C119.77 53.51 120.59 53.8201 121.16 54.4301C121.73 55.0401 122.02 55.86 122.02 56.87C122.02 56.9 122.05 56.9301 122.08 56.9301H122.57C122.57 56.9301 122.63 56.9 122.63 56.87C122.63 55.69 122.32 54.74 121.71 54.05C121.11 53.37 120.25 52.99 119.15 52.92V51.28C119.15 51.28 119.12 51.22 119.09 51.22H118.59C118.59 51.22 118.53 51.25 118.53 51.28V52.92C117.51 52.97 116.66 53.29 116.02 53.88C115.36 54.49 115.03 55.3 115.03 56.3C115.03 56.91 115.14 57.44 115.37 57.87C115.59 58.3 115.94 58.68 116.41 59C116.87 59.32 117.6 59.65 118.57 59.99C119.53 60.32 120.27 60.6399 120.76 60.9399C121.24 61.2399 121.59 61.56 121.8 61.91C122 62.26 122.1 62.71 122.1 63.24C122.1 64.02 121.8 64.68 121.2 65.21C120.6 65.74 119.82 66.01 118.89 66.01C117.76 66.01 116.86 65.71 116.2 65.12C115.55 64.53 115.22 63.7 115.22 62.66C115.22 62.63 115.19 62.6 115.16 62.6H114.67C114.67 62.6 114.61 62.63 114.61 62.66C114.61 63.86 114.97 64.82 115.68 65.51C116.38 66.19 117.37 66.56 118.64 66.62V68.26C118.64 68.26 118.67 68.3199 118.7 68.3199H119.2C119.2 68.3199 119.26 68.29 119.26 68.26V66.61C120.3 66.54 121.14 66.2 121.76 65.61C122.4 65 122.72 64.2 122.72 63.23C122.72 62.74 122.65 62.31 122.5 61.95H122.49Z" fill="black"/>
<path d="M21.7118 48.1877C23.4845 48.1701 24.9073 46.7186 24.8897 44.9459C24.8721 43.1731 23.4207 41.7504 21.6479 41.768C19.8752 41.7856 18.4524 43.237 18.47 45.0097C18.4877 46.7825 19.939 48.2054 21.7118 48.1877Z" fill="#E2EAFF"/>
<path d="M21.6955 57.5772C23.4683 57.5648 24.8954 56.1175 24.883 54.3448C24.8707 52.572 23.4235 51.1449 21.6507 51.1573C19.8779 51.1697 18.4508 52.6168 18.4631 54.3896C18.4755 56.1624 19.9227 57.5895 21.6955 57.5772Z" fill="#E2EAFF"/>
<path d="M21.7782 66.9162C23.551 66.8986 24.9738 65.4471 24.9561 63.6744C24.9385 61.9016 23.4871 60.4789 21.7144 60.4965C19.9416 60.5141 18.5188 61.9655 18.5364 63.7382C18.5541 65.511 20.0055 66.9339 21.7782 66.9162Z" fill="#E2EAFF"/>
<path d="M21.77 39.6899C21.62 39.6899 21.5 39.57 21.5 39.42V26.02C21.5 25.87 21.62 25.75 21.77 25.75H64.06C64.21 25.75 64.33 25.87 64.33 26.02C64.33 26.17 64.21 26.29 64.06 26.29H22.04V39.42C22.04 39.57 21.92 39.6899 21.77 39.6899Z" fill="black"/>
</svg>
